<?xml version="1.0" encoding="UTF-8"?>
<svg xmlns="http://www.w3.org/2000/svg" viewBox="0 0 2659.22 272.03">
  <defs>
    <style>
      .cls-1 {
        stroke-dasharray: 0 0 8 8;
      }

      .cls-1, .cls-2, .cls-3, .cls-4, .cls-5 {
        fill: none;
        stroke-miterlimit: 10;
      }

      .cls-1, .cls-2, .cls-4, .cls-5 {
        stroke-width: 7px;
      }

      .cls-1, .cls-2, .cls-5 {
        stroke: #c4a18c;
      }

      .cls-6 {
        fill: #471e10;
      }

      .cls-2 {
        opacity: .3;
      }

      .cls-3 {
        stroke: #471e10;
        stroke-width: 2px;
      }

      .cls-4 {
        stroke: #9c6340;
      }
    </style>
  </defs>
  <g id="timeline">
    <line class="cls-5" x1="1984" y1="44.76" x2="2240" y2="44.76"/>
    <line class="cls-4" x1="2240" y1="44.76" x2="2496" y2="44.76"/>
    <line class="cls-2" x1="1744" y1="44.76" x2="1984" y2="44.76"/>
    <line class="cls-5" x1="1232" y1="44.76" x2="1744" y2="44.76"/>
    <line class="cls-2" x1="864" y1="44.76" x2="1232" y2="44.76"/>
    <line class="cls-5" x1="64" y1="44.76" x2="864" y2="44.76"/>
    <line class="cls-1" y1="44.76" x2="64" y2="44.76"/>
  </g>
  <g id="line">
    <line class="cls-3" x1="2464" y1="29.76" x2="2464" y2="59.76"/>
    <line class="cls-3" x1="2240" y1="29.76" x2="2240" y2="59.76"/>
    <line class="cls-3" x1="1744" y1="29.76" x2="1744" y2="59.76"/>
    <line class="cls-3" x1="2144" y1="29.76" x2="2144" y2="209.76"/>
    <line class="cls-3" x1="1984" y1="29.76" x2="1984" y2="59.76"/>
    <line class="cls-3" x1="2448" y1="29" x2="2448" y2="119"/>
    <line class="cls-3" x1="2224" y1="29" x2="2224" y2="119"/>
    <line class="cls-3" x1="1232" y1="29" x2="1232" y2="59"/>
    <line class="cls-3" x1="1472" y1="29" x2="1472" y2="59"/>
    <line class="cls-3" x1="864" y1="29" x2="864" y2="59"/>
    <line class="cls-3" x1="800" y1="29" x2="800" y2="119"/>
  </g>
  <g id="label-era">
    <g>
      <path class="cls-6" d="M1243.23,19.5V4.5h2.93v12.43h6.77v2.57h-9.7Z"/>
      <path class="cls-6" d="M1255.4,19.5V4.5h10.22v2.47h-7.34v3.77h6.02v2.47h-6.02v3.82h7.34v2.47h-10.22Z"/>
      <path class="cls-6" d="M1280.12,15.2c0,2.47-1.49,4.3-5.83,4.3h-5.83V4.5h5.74c4.06,0,5.45,1.68,5.45,3.96,0,1.61-.96,2.69-2.69,3.26,1.97,.43,3.17,1.7,3.17,3.48Zm-6.03-8.35h-2.76v4.08h2.52c1.87,0,2.86-.79,2.86-2.09s-.91-1.99-2.62-1.99Zm-.07,6.22h-2.69v4.08h2.9c1.97,0,2.93-.7,2.93-2.06,0-1.49-1.3-2.02-3.14-2.02Z"/>
      <path class="cls-6" d="M1295.55,19.5h-2.95l-1.25-3.55h-6.05l-1.22,3.55h-2.95l5.47-15h3.55l5.4,15Zm-7.2-12.48l-2.28,6.5h4.54l-2.26-6.5Z"/>
      <path class="cls-6" d="M1307.67,4.5h2.78v15.15h-3.12l-7.18-11.04v10.9h-2.78V4.5h3.19l7.1,10.92V4.5Z"/>
      <path class="cls-6" d="M1313.91,19.5V4.5h10.22v2.47h-7.34v3.77h6.02v2.47h-6.02v3.82h7.34v2.47h-10.22Z"/>
      <path class="cls-6" d="M1334.26,15.4c0-1.25-1.13-1.7-3.34-2.3-2.16-.6-4.66-1.56-4.66-4.51,0-2.66,2.04-4.44,5.38-4.44,2.04,0,3.72,.5,5.16,1.32l-.72,2.47c-1.32-.79-3-1.3-4.42-1.3-1.75,0-2.52,.74-2.52,1.78,0,1.22,1.34,1.7,3.41,2.26,2.26,.62,4.58,1.66,4.58,4.51s-2.18,4.68-5.71,4.68c-1.99,0-3.98-.53-5.4-1.39l.67-2.52c1.39,.84,2.98,1.44,4.78,1.44,1.63,0,2.78-.79,2.78-1.99Z"/>
      <path class="cls-6" d="M1339.83,19.5V4.5h10.22v2.47h-7.34v3.77h6.02v2.47h-6.02v3.82h7.34v2.47h-10.22Z"/>
      <path class="cls-6" d="M1358.16,19.5V4.5h2.9v15h-2.9Z"/>
      <path class="cls-6" d="M1374.87,4.5h2.78v15.15h-3.12l-7.18-11.04v10.9h-2.78V4.5h3.19l7.1,10.92V4.5Z"/>
      <path class="cls-6" d="M1386,19.5h-4.9V4.5h5.09c5.11,0,8.09,2.93,8.09,7.39s-2.95,7.61-8.28,7.61Zm.02-12.53h-1.99v10.06h2.14c3.17,0,5.18-1.66,5.18-4.99s-1.9-5.06-5.33-5.06Z"/>
      <path class="cls-6" d="M1396.99,19.5V4.5h10.22v2.47h-7.34v3.77h6.02v2.47h-6.02v3.82h7.34v2.47h-10.22Z"/>
      <path class="cls-6" d="M1414.68,14.82l-1.7,.02v4.66h-2.93V4.5h4.85c4.15,0,6.19,2.09,6.19,5.02,0,3.46-2.38,5.28-6.41,5.3Zm.02-7.87h-1.78v5.47l1.87-.05c2.23-.05,3.36-1.01,3.36-2.76s-1.15-2.66-3.46-2.66Z"/>
      <path class="cls-6" d="M1423.63,19.5V4.5h10.22v2.47h-7.34v3.77h6.02v2.47h-6.02v3.82h7.34v2.47h-10.22Z"/>
      <path class="cls-6" d="M1446.99,4.5h2.78v15.15h-3.12l-7.18-11.04v10.9h-2.78V4.5h3.19l7.1,10.92V4.5Z"/>
      <path class="cls-6" d="M1458.12,19.5h-4.9V4.5h5.09c5.11,0,8.09,2.93,8.09,7.39s-2.95,7.61-8.28,7.61Zm.02-12.53h-1.99v10.06h2.14c3.17,0,5.18-1.66,5.18-4.99s-1.9-5.06-5.33-5.06Z"/>
      <path class="cls-6" d="M1469.11,19.5V4.5h10.22v2.47h-7.34v3.77h6.02v2.47h-6.02v3.82h7.34v2.47h-10.22Z"/>
      <path class="cls-6" d="M1492.47,4.5h2.78v15.15h-3.12l-7.18-11.04v10.9h-2.78V4.5h3.19l7.1,10.92V4.5Z"/>
      <path class="cls-6" d="M1509.75,7.86c-1.2-.79-2.5-1.2-3.94-1.2-2.93,0-4.87,2.02-4.87,5.28s1.9,5.4,4.92,5.4c1.54,0,3-.58,4.1-1.34l.55,2.69c-1.2,.72-3.07,1.18-4.78,1.18-4.61,0-7.75-2.9-7.75-7.82s3.14-7.9,7.83-7.9c1.75,0,3.55,.46,4.85,1.18l-.91,2.54Z"/>
      <path class="cls-6" d="M1513.27,19.5V4.5h10.22v2.47h-7.34v3.77h6.02v2.47h-6.02v3.82h7.34v2.47h-10.22Z"/>
    </g>
    <g>
      <path class="cls-6" d="M875.73,4.5h9.98v2.54h-7.08v3.96h5.76v2.52h-5.76v5.98h-2.9V4.5Z"/>
      <path class="cls-6" d="M891.09,19.5h-2.93V4.5s5.3,0,5.26,0c3.79,0,5.81,1.8,5.81,4.56,0,2.14-1.2,3.62-3.24,4.32l3.94,6.12h-3.34l-3.34-5.5-2.16,.14v5.35Zm2.16-7.7c1.8-.1,2.98-.91,2.98-2.54s-1.18-2.3-3.26-2.3h-1.9v4.9l2.18-.05Z"/>
      <path class="cls-6" d="M902.1,19.5V4.5h10.22v2.47h-7.34v3.77h6.02v2.47h-6.02v3.82h7.34v2.47h-10.22Z"/>
      <path class="cls-6" d="M925.46,4.5h2.78v15.15h-3.12l-7.18-11.04v10.9h-2.78V4.5h3.19l7.1,10.92V4.5Z"/>
      <path class="cls-6" d="M942.74,7.86c-1.2-.79-2.5-1.2-3.94-1.2-2.93,0-4.87,2.02-4.87,5.28s1.9,5.4,4.92,5.4c1.54,0,3-.58,4.1-1.34l.55,2.69c-1.2,.72-3.07,1.18-4.78,1.18-4.61,0-7.75-2.9-7.75-7.82s3.14-7.9,7.83-7.9c1.75,0,3.55,.46,4.85,1.18l-.91,2.54Z"/>
      <path class="cls-6" d="M956.32,19.5v-6.29h-7.13v6.29h-2.93V4.5h2.93v6.17h7.13V4.5h2.9v15h-2.9Z"/>
      <path class="cls-6" d="M981.62,7.48l-3.91,11.81h-3.07l-3.94-11.81-.14,12.02h-2.76l.5-15h4.06l3.86,11.81,3.86-11.81h4.01l.48,15h-2.83l-.12-12.02Z"/>
      <path class="cls-6" d="M1000.5,19.5h-2.95l-1.25-3.55h-6.05l-1.22,3.55h-2.95l5.47-15h3.55l5.4,15Zm-7.2-12.48l-2.28,6.5h4.54l-2.26-6.5Z"/>
      <path class="cls-6" d="M1012.62,4.5h2.78v15.15h-3.12l-7.18-11.04v10.9h-2.78V4.5h3.19l7.1,10.92V4.5Z"/>
      <path class="cls-6" d="M1023.76,19.5h-4.9V4.5h5.09c5.11,0,8.09,2.93,8.09,7.39s-2.95,7.61-8.28,7.61Zm.02-12.53h-1.99v10.06h2.14c3.17,0,5.18-1.66,5.18-4.99s-1.9-5.06-5.33-5.06Z"/>
      <path class="cls-6" d="M1047.42,19.5h-2.95l-1.25-3.55h-6.05l-1.22,3.55h-2.95l5.47-15h3.55l5.4,15Zm-7.2-12.48l-2.28,6.5h4.54l-2.26-6.5Z"/>
      <path class="cls-6" d="M1054.55,7.07v12.43h-2.9V7.07h-5.02v-2.57h12.94v2.57h-5.02Z"/>
      <path class="cls-6" d="M1061.8,19.5V4.5h10.22v2.47h-7.34v3.77h6.02v2.47h-6.02v3.82h7.34v2.47h-10.22Z"/>
    </g>
    <g>
      <path class="cls-6" d="M18.71,19.86c-4.44,0-7.71-2.9-7.71-7.82,0-4.63,3.29-7.9,7.73-7.9s7.68,2.88,7.68,7.8c0,4.63-3.26,7.92-7.7,7.92Zm-.05-13.27c-2.86,0-4.71,2.16-4.71,5.35s1.87,5.47,4.8,5.47,4.73-2.18,4.73-5.38-1.9-5.45-4.82-5.45Z"/>
      <path class="cls-6" d="M35.61,7.07v12.43h-2.9V7.07h-5.02v-2.57h12.94v2.57h-5.02Z"/>
      <path class="cls-6" d="M49.79,7.07v12.43h-2.9V7.07h-5.02v-2.57h12.94v2.57h-5.02Z"/>
      <path class="cls-6" d="M63.79,19.86c-4.44,0-7.71-2.9-7.71-7.82,0-4.63,3.29-7.9,7.73-7.9s7.68,2.88,7.68,7.8c0,4.63-3.26,7.92-7.7,7.92Zm-.05-13.27c-2.86,0-4.71,2.16-4.71,5.35s1.87,5.47,4.8,5.47,4.73-2.18,4.73-5.38-1.9-5.45-4.82-5.45Z"/>
      <path class="cls-6" d="M87.67,7.48l-3.91,11.81h-3.07l-3.94-11.81-.14,12.02h-2.76l.5-15h4.06l3.86,11.81,3.86-11.81h4.01l.48,15h-2.83l-.12-12.02Z"/>
      <path class="cls-6" d="M106.55,19.5h-2.95l-1.25-3.55h-6.05l-1.22,3.55h-2.95l5.47-15h3.55l5.4,15Zm-7.2-12.48l-2.28,6.5h4.54l-2.26-6.5Z"/>
      <path class="cls-6" d="M118.67,4.5h2.78v15.15h-3.12l-7.18-11.04v10.9h-2.78V4.5h3.19l7.1,10.92V4.5Z"/>
      <path class="cls-6" d="M130.14,19.5V4.5h10.22v2.47h-7.34v3.77h6.02v2.47h-6.02v3.82h7.34v2.47h-10.22Z"/>
      <path class="cls-6" d="M156.64,7.48l-3.91,11.81h-3.07l-3.94-11.81-.14,12.02h-2.76l.5-15h4.06l3.86,11.81,3.86-11.81h4.01l.48,15h-2.83l-.12-12.02Z"/>
      <path class="cls-6" d="M167.29,14.82l-1.7,.02v4.66h-2.93V4.5h4.85c4.15,0,6.19,2.09,6.19,5.02,0,3.46-2.38,5.28-6.41,5.3Zm.02-7.87h-1.78v5.47l1.87-.05c2.23-.05,3.36-1.01,3.36-2.76s-1.15-2.66-3.46-2.66Z"/>
      <path class="cls-6" d="M176.29,19.5V4.5h2.9v15h-2.9Z"/>
      <path class="cls-6" d="M185.63,19.5h-2.93V4.5s5.3,0,5.26,0c3.79,0,5.81,1.8,5.81,4.56,0,2.14-1.2,3.62-3.24,4.32l3.94,6.12h-3.34l-3.34-5.5-2.16,.14v5.35Zm2.16-7.7c1.8-.1,2.98-.91,2.98-2.54s-1.18-2.3-3.26-2.3h-1.9v4.9l2.18-.05Z"/>
      <path class="cls-6" d="M196.65,19.5V4.5h10.22v2.47h-7.34v3.77h6.02v2.47h-6.02v3.82h7.34v2.47h-10.22Z"/>
    </g>
    <g>
      <path class="cls-6" d="M2000.36,14.82l-1.7,.02v4.66h-2.93V4.5h4.85c4.15,0,6.19,2.09,6.19,5.02,0,3.46-2.38,5.28-6.41,5.3Zm.02-7.87h-1.78v5.47l1.87-.05c2.23-.05,3.36-1.01,3.36-2.76s-1.15-2.66-3.46-2.66Z"/>
      <path class="cls-6" d="M2016.3,19.86c-4.44,0-7.71-2.9-7.71-7.82,0-4.63,3.29-7.9,7.73-7.9s7.68,2.88,7.68,7.8c0,4.63-3.26,7.92-7.7,7.92Zm-.05-13.27c-2.86,0-4.71,2.16-4.71,5.35s1.87,5.47,4.8,5.47,4.73-2.18,4.73-5.38-1.9-5.45-4.82-5.45Z"/>
      <path class="cls-6" d="M2034.03,15.4c0-1.25-1.13-1.7-3.34-2.3-2.16-.6-4.66-1.56-4.66-4.51,0-2.66,2.04-4.44,5.38-4.44,2.04,0,3.72,.5,5.16,1.32l-.72,2.47c-1.32-.79-3-1.3-4.42-1.3-1.75,0-2.52,.74-2.52,1.78,0,1.22,1.34,1.7,3.41,2.26,2.26,.62,4.58,1.66,4.58,4.51s-2.18,4.68-5.71,4.68c-1.99,0-3.98-.53-5.4-1.39l.67-2.52c1.39,.84,2.98,1.44,4.78,1.44,1.63,0,2.78-.79,2.78-1.99Z"/>
      <path class="cls-6" d="M2045.99,7.07v12.43h-2.9V7.07h-5.02v-2.57h12.94v2.57h-5.02Z"/>
      <path class="cls-6" d="M2051.26,14.89v-2.42h6.77v2.42h-6.77Z"/>
      <path class="cls-6" d="M2071.74,7.86c-1.2-.79-2.5-1.2-3.94-1.2-2.93,0-4.87,2.02-4.87,5.28s1.9,5.4,4.92,5.4c1.54,0,3-.58,4.1-1.34l.55,2.69c-1.2,.72-3.07,1.18-4.78,1.18-4.61,0-7.75-2.9-7.75-7.82s3.14-7.9,7.83-7.9c1.75,0,3.55,.46,4.85,1.18l-.91,2.54Z"/>
      <path class="cls-6" d="M2075.31,19.5V4.5h2.9v15h-2.9Z"/>
      <path class="cls-6" d="M2088.92,19.5h-3.55l-5.33-15h3.02l4.1,12.05,4.1-12.05h3.02l-5.38,15Z"/>
      <path class="cls-6" d="M2096.14,19.5V4.5h2.9v15h-2.9Z"/>
      <path class="cls-6" d="M2102.55,19.5V4.5h2.93v12.43h6.77v2.57h-9.7Z"/>
      <path class="cls-6" d="M2125.74,19.5h-2.98l-4.13-15h3.12l2.62,11.43,3.12-11.43h3.36l3.17,11.43,2.59-11.43h2.98l-4.13,15h-3.02l-3.31-11.59-3.38,11.59Z"/>
      <path class="cls-6" d="M2153.7,19.5h-2.95l-1.25-3.55h-6.05l-1.22,3.55h-2.95l5.47-15h3.55l5.4,15Zm-7.2-12.48l-2.28,6.5h4.54l-2.26-6.5Z"/>
      <path class="cls-6" d="M2158.45,19.5h-2.93V4.5s5.3,0,5.26,0c3.79,0,5.81,1.8,5.81,4.56,0,2.14-1.2,3.62-3.24,4.32l3.94,6.12h-3.34l-3.34-5.5-2.16,.14v5.35Zm2.16-7.7c1.8-.1,2.98-.91,2.98-2.54s-1.18-2.3-3.26-2.3h-1.9v4.9l2.18-.05Z"/>
    </g>
    <g>
      <path class="cls-6" d="M1766.77,7.86c-1.2-.79-2.5-1.2-3.94-1.2-2.93,0-4.87,2.02-4.87,5.28s1.9,5.4,4.92,5.4c1.54,0,3-.58,4.1-1.34l.55,2.69c-1.2,.72-3.07,1.18-4.78,1.18-4.61,0-7.75-2.9-7.75-7.82s3.14-7.9,7.83-7.9c1.75,0,3.55,.46,4.85,1.18l-.91,2.54Z"/>
      <path class="cls-6" d="M1770.34,19.5V4.5h2.9v15h-2.9Z"/>
      <path class="cls-6" d="M1783.95,19.5h-3.55l-5.33-15h3.02l4.1,12.05,4.1-12.05h3.02l-5.38,15Z"/>
      <path class="cls-6" d="M1791.18,19.5V4.5h2.9v15h-2.9Z"/>
      <path class="cls-6" d="M1797.58,19.5V4.5h2.93v12.43h6.77v2.57h-9.7Z"/>
      <path class="cls-6" d="M1820.77,19.5h-2.98l-4.13-15h3.12l2.62,11.43,3.12-11.43h3.36l3.17,11.43,2.59-11.43h2.98l-4.13,15h-3.02l-3.31-11.59-3.38,11.59Z"/>
      <path class="cls-6" d="M1848.73,19.5h-2.95l-1.25-3.55h-6.05l-1.22,3.55h-2.95l5.47-15h3.55l5.4,15Zm-7.2-12.48l-2.28,6.5h4.54l-2.26-6.5Z"/>
      <path class="cls-6" d="M1853.48,19.5h-2.93V4.5s5.3,0,5.26,0c3.79,0,5.81,1.8,5.81,4.56,0,2.14-1.2,3.62-3.24,4.32l3.94,6.12h-3.34l-3.34-5.5-2.16,.14v5.35Zm2.16-7.7c1.8-.1,2.98-.91,2.98-2.54s-1.18-2.3-3.26-2.3h-1.9v4.9l2.18-.05Z"/>
    </g>
    <g>
      <path class="cls-6" d="M2256.36,14.82l-1.71,.02v4.66h-2.93V4.5h4.85c4.15,0,6.19,2.09,6.19,5.02,0,3.46-2.38,5.28-6.41,5.3Zm.02-7.87h-1.78v5.47l1.87-.05c2.23-.05,3.36-1.01,3.36-2.76s-1.15-2.66-3.46-2.66Z"/>
      <path class="cls-6" d="M2268.24,19.5h-2.93V4.5s5.3,0,5.26,0c3.79,0,5.81,1.8,5.81,4.56,0,2.14-1.2,3.62-3.24,4.32l3.94,6.12h-3.34l-3.34-5.5-2.16,.14v5.35Zm2.16-7.7c1.8-.1,2.98-.91,2.98-2.54s-1.18-2.3-3.26-2.3h-1.9v4.9l2.18-.05Z"/>
      <path class="cls-6" d="M2279.26,19.5V4.5h10.22v2.47h-7.34v3.77h6.02v2.47h-6.02v3.82h7.34v2.47h-10.22Z"/>
      <path class="cls-6" d="M2299.61,15.4c0-1.25-1.13-1.7-3.34-2.3-2.16-.6-4.66-1.56-4.66-4.51,0-2.66,2.04-4.44,5.38-4.44,2.04,0,3.72,.5,5.16,1.32l-.72,2.47c-1.32-.79-3-1.3-4.42-1.3-1.75,0-2.52,.74-2.52,1.78,0,1.22,1.35,1.7,3.41,2.26,2.26,.62,4.59,1.66,4.59,4.51s-2.19,4.68-5.71,4.68c-1.99,0-3.98-.53-5.4-1.39l.67-2.52c1.39,.84,2.98,1.44,4.78,1.44,1.63,0,2.79-.79,2.79-1.99Z"/>
      <path class="cls-6" d="M2305.18,19.5V4.5h10.22v2.47h-7.34v3.77h6.02v2.47h-6.02v3.82h7.34v2.47h-10.22Z"/>
      <path class="cls-6" d="M2328.53,4.5h2.78v15.15h-3.12l-7.18-11.04v10.9h-2.78V4.5h3.19l7.11,10.92V4.5Z"/>
      <path class="cls-6" d="M2341.46,7.07v12.43h-2.9V7.07h-5.02v-2.57h12.94v2.57h-5.02Z"/>
      <path class="cls-6" d="M2359.32,19.5h-4.9V4.5h5.09c5.11,0,8.09,2.93,8.09,7.39s-2.95,7.61-8.28,7.61Zm.02-12.53h-1.99v10.06h2.14c3.17,0,5.18-1.66,5.18-4.99s-1.9-5.06-5.33-5.06Z"/>
      <path class="cls-6" d="M2382.98,19.5h-2.95l-1.25-3.55h-6.05l-1.22,3.55h-2.95l5.47-15h3.55l5.4,15Zm-7.2-12.48l-2.28,6.5h4.54l-2.26-6.5Z"/>
      <path class="cls-6" d="M2390.28,13.69v5.81h-2.9v-5.83l-5.23-9.17h3.17l3.55,6.48,3.48-6.48h3.14l-5.21,9.19Z"/>
    </g>
  </g>
  <g id="label-year">
    <g>
      <path class="cls-6" d="M1235.77,78.35l-2.78,.77-.07-2.42,5.66-1.49v11.79h-2.81v-8.64Z"/>
      <path class="cls-6" d="M1244,91.26l-.74-2.42c3.36-.72,5.9-2.38,6.6-5.02l-.07-.05c-.84,.84-2.06,1.46-3.67,1.46-2.52,0-4.51-1.75-4.51-4.63,0-3.02,2.09-5.38,5.57-5.38s5.67,2.86,5.67,6.58c0,4.37-3.1,8.4-8.83,9.46Zm3.07-13.73c-1.58,0-2.59,1.13-2.59,2.81s1.03,2.66,2.54,2.66c1.13,0,2.18-.55,2.74-1.06,.07-.29,.1-.7,.1-1.06,0-1.78-1.03-3.36-2.78-3.36Z"/>
      <path class="cls-6" d="M1264.33,86.82v4.46h-2.69v-4.46h-7.01l-.31-1.7,7.13-9.79h2.88v9.12h2.28l.07,2.38h-2.35Zm-2.59-8.33l-4.25,5.98h4.25v-5.98Z"/>
      <path class="cls-6" d="M1277.5,86.65c0,3.05-2.62,4.82-5.83,4.82-1.66,0-3.24-.38-4.39-1.01l.41-2.42c1.01,.65,2.42,1.08,3.84,1.08,1.82,.02,3.05-.82,3.05-2.4,0-1.42-1.1-2.14-3-2.18-.65-.02-1.37,.02-2.06,.14v-2.18c2.28-.48,4.44-1.2,4.44-2.93,0-1.22-.89-1.92-2.45-1.92-1.18,0-2.35,.55-3.43,1.34l-.77-2.18c1.22-.91,2.81-1.58,4.75-1.58,2.98,0,4.94,1.56,4.94,3.86,0,1.78-1.37,3.14-3.02,3.77,2.35,.38,3.53,2.04,3.53,3.79Z"/>
      <path class="cls-6" d="M1233.92,115.79v-15h1.54v13.56h7.42v1.44h-8.95Z"/>
      <path class="cls-6" d="M1245.75,110.46c.05,2.47,1.54,4.25,3.84,4.25,1.2,0,2.35-.36,3.19-.91l.29,1.37c-.94,.58-2.16,.94-3.53,.94-3.17,0-5.3-2.38-5.3-5.71s2.21-5.9,5.18-5.9c2.42,0,4.01,1.58,4.01,4.06,0,.58-.1,1.27-.24,1.75l-7.44,.05v.12Zm6.19-1.32c.02-.12,.02-.36,.02-.48,0-1.68-.91-2.83-2.64-2.83-1.97,0-3.24,1.51-3.48,3.34l6.1-.02Z"/>
      <path class="cls-6" d="M1260.42,116.1c-.89,0-1.97-.26-2.69-.6l-1.49,.65v-16.54l1.49-.31v6.65c.74-.7,1.9-1.39,3.31-1.39,2.9,0,4.8,2.3,4.8,5.59,0,3.46-2.26,5.95-5.42,5.95Zm.34-10.18c-1.2,0-2.23,.5-3.02,1.22,0-.07,0,6.74,0,6.74,.67,.53,1.71,.86,2.76,.86,2.35,0,3.82-1.9,3.82-4.54,0-2.5-1.37-4.3-3.55-4.3Z"/>
      <path class="cls-6" d="M1274.26,114.47c-.74,.91-1.92,1.63-3.22,1.63-2.02,0-3.48-1.3-3.48-3.05,0-1.99,1.56-3.62,6.67-3.91v-.65c0-1.73-.77-2.62-2.59-2.62-1.2,0-2.66,.62-3.6,1.32l-.34-1.39c.98-.7,2.64-1.32,4.08-1.32,2.54,0,3.96,1.15,3.94,3.94v5.28c0,.79,.14,1.13,1.1,1.1l-.1,1.22c-1.44,.1-2.23-.48-2.4-1.56h-.07Zm-.02-4.32c-3.77,.43-5.11,1.27-5.11,2.74,0,1.18,.96,1.92,2.26,1.92,1.18,0,2.18-.67,2.86-1.44v-3.22Z"/>
      <path class="cls-6" d="M1286.29,115.79v-7.1c0-1.92-.77-2.78-2.42-2.78-1.2,0-2.42,.65-3.34,1.56v8.33h-1.49v-10.99l1.49-.31v1.8c1.15-1.15,2.59-1.8,3.75-1.8,2.21,0,3.5,1.37,3.5,3.77v7.54h-1.49Z"/>
      <path class="cls-6" d="M1291.95,110.46c.05,2.47,1.54,4.25,3.84,4.25,1.2,0,2.35-.36,3.19-.91l.29,1.37c-.94,.58-2.16,.94-3.53,.94-3.17,0-5.3-2.38-5.3-5.71s2.21-5.9,5.18-5.9c2.42,0,4.01,1.58,4.01,4.06,0,.58-.1,1.27-.24,1.75l-7.44,.05v.12Zm6.19-1.32c.02-.12,.02-.36,.02-.48,0-1.68-.91-2.83-2.64-2.83-1.97,0-3.24,1.51-3.48,3.34l6.1-.02Z"/>
      <path class="cls-6" d="M1305.1,116.1c-1.3,0-2.66-.38-3.6-.98l.41-1.37c.94,.62,2.11,1.01,3.24,1.01,1.32,0,2.47-.65,2.47-1.85,0-1.32-1.39-1.7-2.76-2.14-1.51-.46-3.19-1.2-3.19-3.12s1.66-3.17,3.72-3.17c1.2,0,2.4,.34,3.34,.82l-.43,1.34c-.91-.5-2.04-.82-3-.82-1.34,0-2.21,.62-2.21,1.68,0,1.25,1.3,1.63,2.71,2.06,1.56,.46,3.24,1.18,3.24,3.22s-1.73,3.31-3.94,3.31Z"/>
      <path class="cls-6" d="M1312.52,110.46c.05,2.47,1.54,4.25,3.84,4.25,1.2,0,2.35-.36,3.19-.91l.29,1.37c-.94,.58-2.16,.94-3.53,.94-3.17,0-5.3-2.38-5.3-5.71s2.21-5.9,5.18-5.9c2.42,0,4.01,1.58,4.01,4.06,0,.58-.1,1.27-.24,1.75l-7.44,.05v.12Zm6.19-1.32c.02-.12,.02-.36,.02-.48,0-1.68-.91-2.83-2.64-2.83-1.97,0-3.24,1.51-3.48,3.34l6.1-.02Z"/>
      <path class="cls-6" d="M1233.97,144.59v-15h1.51v15h-1.51Z"/>
      <path class="cls-6" d="M1246.45,144.59v-7.1c0-1.92-.77-2.78-2.42-2.78-1.2,0-2.42,.65-3.34,1.56v8.33h-1.49v-10.99l1.49-.31v1.8c1.15-1.15,2.59-1.8,3.75-1.8,2.21,0,3.5,1.37,3.5,3.77v7.54h-1.49Z"/>
      <path class="cls-6" d="M1258.71,128.41l1.49-.31v16.49h-1.49v-1.03c-.72,.67-1.82,1.34-3.19,1.34-2.95,0-4.92-2.38-4.92-5.71s2.28-5.83,5.45-5.83c.94,0,1.94,.26,2.66,.6v-5.54Zm-2.74,6.29c-2.35,0-3.84,1.87-3.84,4.46s1.42,4.37,3.65,4.37c1.13,0,2.16-.5,2.93-1.22,0,.05,0-6.77,0-6.77-.67-.53-1.68-.84-2.74-.84Z"/>
      <path class="cls-6" d="M1264.45,139.26c.05,2.47,1.54,4.25,3.84,4.25,1.2,0,2.35-.36,3.19-.91l.29,1.37c-.94,.58-2.16,.94-3.53,.94-3.17,0-5.3-2.38-5.3-5.71s2.21-5.9,5.18-5.9c2.42,0,4.01,1.58,4.01,4.06,0,.58-.1,1.27-.24,1.75l-7.44,.05v.12Zm6.19-1.32c.02-.12,.02-.36,.02-.48,0-1.68-.91-2.83-2.64-2.83-1.97,0-3.24,1.51-3.48,3.34l6.1-.02Z"/>
      <path class="cls-6" d="M1279.62,133.35c2.98,0,4.92,2.35,4.92,5.69s-2.26,5.86-5.42,5.86c-.86,0-1.97-.24-2.69-.58v5.86h-1.49v-16.63l1.49-.31v1.46c.74-.7,1.85-1.34,3.19-1.34Zm-3.19,9.34c.67,.53,1.71,.86,2.76,.86,2.35,0,3.82-1.9,3.82-4.49s-1.39-4.34-3.62-4.34c-1.13,0-2.16,.5-2.95,1.22,0-.07,0,6.74,0,6.74Z"/>
      <path class="cls-6" d="M1288.09,139.26c.05,2.47,1.54,4.25,3.84,4.25,1.2,0,2.35-.36,3.19-.91l.29,1.37c-.94,.58-2.16,.94-3.53,.94-3.17,0-5.3-2.38-5.3-5.71s2.21-5.9,5.18-5.9c2.42,0,4.01,1.58,4.01,4.06,0,.58-.1,1.27-.24,1.75l-7.44,.05v.12Zm6.19-1.32c.02-.12,.02-.36,.02-.48,0-1.68-.91-2.83-2.64-2.83-1.97,0-3.24,1.51-3.48,3.34l6.1-.02Z"/>
      <path class="cls-6" d="M1305.82,144.59v-7.1c0-1.92-.77-2.78-2.42-2.78-1.2,0-2.42,.65-3.34,1.56v8.33h-1.49v-10.99l1.49-.31v1.8c1.15-1.15,2.59-1.8,3.75-1.8,2.21,0,3.5,1.37,3.5,3.77v7.54h-1.49Z"/>
      <path class="cls-6" d="M1318.09,128.41l1.49-.31v16.49h-1.49v-1.03c-.72,.67-1.82,1.34-3.19,1.34-2.95,0-4.92-2.38-4.92-5.71s2.28-5.83,5.45-5.83c.94,0,1.94,.26,2.66,.6v-5.54Zm-2.74,6.29c-2.35,0-3.84,1.87-3.84,4.46s1.42,4.37,3.65,4.37c1.13,0,2.16-.5,2.93-1.22,0,.05,0-6.77,0-6.77-.67-.53-1.68-.84-2.74-.84Z"/>
      <path class="cls-6" d="M1323.82,139.26c.05,2.47,1.54,4.25,3.84,4.25,1.2,0,2.35-.36,3.19-.91l.29,1.37c-.94,.58-2.16,.94-3.53,.94-3.17,0-5.3-2.38-5.3-5.71s2.21-5.9,5.18-5.9c2.42,0,4.01,1.58,4.01,4.06,0,.58-.1,1.27-.24,1.75l-7.44,.05v.12Zm6.19-1.32c.02-.12,.02-.36,.02-.48,0-1.68-.91-2.83-2.64-2.83-1.97,0-3.24,1.51-3.48,3.34l6.1-.02Z"/>
      <path class="cls-6" d="M1341.56,144.59v-7.1c0-1.92-.77-2.78-2.42-2.78-1.2,0-2.42,.65-3.34,1.56v8.33h-1.49v-10.99l1.49-.31v1.8c1.15-1.15,2.59-1.8,3.75-1.8,2.21,0,3.5,1.37,3.5,3.77v7.54h-1.49Z"/>
      <path class="cls-6" d="M1351.09,144.9c-3.31,0-5.38-2.38-5.38-5.78s2.28-5.83,5.4-5.83c1.34,0,2.5,.34,3.43,.94l-.38,1.34c-.84-.55-1.9-.89-3.05-.89-2.38,0-3.86,1.78-3.86,4.39s1.56,4.44,3.89,4.44c1.1,0,2.21-.36,3.05-.91l.31,1.37c-.94,.58-2.14,.94-3.41,.94Z"/>
      <path class="cls-6" d="M1357.93,139.26c.05,2.47,1.54,4.25,3.84,4.25,1.2,0,2.35-.36,3.19-.91l.29,1.37c-.94,.58-2.16,.94-3.53,.94-3.17,0-5.3-2.38-5.3-5.71s2.21-5.9,5.18-5.9c2.42,0,4.01,1.58,4.01,4.06,0,.58-.1,1.27-.24,1.75l-7.44,.05v.12Zm6.19-1.32c.02-.12,.02-.36,.02-.48,0-1.68-.91-2.83-2.64-2.83-1.97,0-3.24,1.51-3.48,3.34l6.1-.02Z"/>
    </g>
    <g>
      <path class="cls-6" d="M2465.06,86.99v-2.14c3.55-2.45,6.12-3.96,6.12-5.54,0-.96-.74-1.63-2.06-1.63-1.13,0-2.26,.5-3.43,1.32l-.77-2.21c1.22-.91,2.93-1.56,4.75-1.56,2.76,0,4.51,1.46,4.51,3.62,0,2.3-2.02,3.77-5.14,5.71h5.67l.02,2.42h-9.67Z"/>
      <path class="cls-6" d="M2482.34,87.35c-3.55,0-5.88-2.42-5.88-6.05s2.38-6.07,5.9-6.07,5.95,2.42,5.95,6.05-2.4,6.07-5.98,6.07Zm.02-9.79c-1.87,0-3.14,1.49-3.14,3.74s1.27,3.72,3.14,3.72,3.17-1.49,3.17-3.72-1.27-3.74-3.17-3.74Z"/>
      <path class="cls-6" d="M2490.21,86.99v-2.14c3.55-2.45,6.12-3.96,6.12-5.54,0-.96-.74-1.63-2.06-1.63-1.13,0-2.26,.5-3.43,1.32l-.77-2.21c1.22-.91,2.93-1.56,4.75-1.56,2.76,0,4.51,1.46,4.51,3.62,0,2.3-2.02,3.77-5.14,5.71h5.67l.02,2.42h-9.67Z"/>
      <path class="cls-6" d="M2507.49,87.35c-3.55,0-5.88-2.42-5.88-6.05s2.38-6.07,5.9-6.07,5.95,2.42,5.95,6.05-2.4,6.07-5.98,6.07Zm.02-9.79c-1.87,0-3.14,1.49-3.14,3.74s1.27,3.72,3.14,3.72,3.17-1.49,3.17-3.72-1.27-3.74-3.17-3.74Z"/>
      <path class="cls-6" d="M2469.5,110.48l-2.04,.02v5.28h-1.54v-15h3.77c3.96,0,5.86,1.92,5.86,4.68,0,3.29-2.33,4.97-6.05,5.02Zm.14-8.28h-2.18v6.89l2.14-.05c2.83-.05,4.37-1.18,4.37-3.5,0-2.14-1.51-3.34-4.32-3.34Z"/>
      <path class="cls-6" d="M2482.41,116.1c-3.05,0-5.3-2.26-5.3-5.78s2.35-5.83,5.42-5.83,5.28,2.26,5.28,5.78-2.35,5.83-5.4,5.83Zm.05-10.27c-2.33,0-3.86,1.85-3.86,4.44s1.56,4.49,3.89,4.49,3.86-1.85,3.86-4.44-1.56-4.49-3.89-4.49Z"/>
      <path class="cls-6" d="M2492.06,115.79h-1.49v-10.99l1.49-.31v2.35c.72-1.42,1.8-2.35,3.24-2.35,.72,0,1.42,.22,1.92,.5l-.38,1.39c-.48-.29-1.06-.48-1.68-.48-1.15,0-2.23,.86-3.1,2.83v7.06Z"/>
      <path class="cls-6" d="M2502.5,116.15c-2.09,0-3.02-1.15-2.95-3.46l.17-6.5-1.68-.1,.07-.94,1.66-.38,.07-2.5h1.42l-.07,2.57h3.67l-.07,1.32h-3.65l-.17,6.58c-.05,1.39,.46,2.06,1.61,2.06,.72,0,1.44-.24,2.11-.53l.26,1.3c-.77,.36-1.66,.58-2.45,.58Z"/>
      <path class="cls-6" d="M2513.03,115.79v-15h9.07v1.42h-7.54v5.38h6.29v1.39h-6.29v5.4h7.54v1.42h-9.07Z"/>
      <path class="cls-6" d="M2530.98,115.79l-2.98-4.63-2.95,4.63h-1.68l3.79-5.64-3.55-5.35h1.66l2.74,4.27,2.69-4.27h1.66l-3.5,5.3,3.79,5.69h-1.66Z"/>
      <path class="cls-6" d="M2539.14,104.55c2.98,0,4.92,2.35,4.92,5.69s-2.26,5.86-5.42,5.86c-.86,0-1.97-.24-2.69-.58v5.86h-1.49v-16.63l1.49-.31v1.46c.74-.7,1.85-1.34,3.19-1.34Zm-3.19,9.34c.67,.53,1.71,.86,2.76,.86,2.35,0,3.82-1.9,3.82-4.49s-1.39-4.34-3.62-4.34c-1.13,0-2.16,.5-2.95,1.22,0-.07,0,6.74,0,6.74Z"/>
      <path class="cls-6" d="M2546.82,115.79v-16.18l1.49-.31v16.49h-1.49Z"/>
      <path class="cls-6" d="M2556.35,116.1c-3.05,0-5.3-2.26-5.3-5.78s2.35-5.83,5.42-5.83,5.28,2.26,5.28,5.78-2.35,5.83-5.4,5.83Zm.05-10.27c-2.33,0-3.86,1.85-3.86,4.44s1.56,4.49,3.89,4.49,3.86-1.85,3.86-4.44-1.56-4.49-3.89-4.49Z"/>
      <path class="cls-6" d="M2567.17,116.1c-1.3,0-2.66-.38-3.6-.98l.41-1.37c.94,.62,2.11,1.01,3.24,1.01,1.32,0,2.47-.65,2.47-1.85,0-1.32-1.39-1.7-2.76-2.14-1.51-.46-3.19-1.2-3.19-3.12s1.66-3.17,3.72-3.17c1.2,0,2.4,.34,3.34,.82l-.43,1.34c-.91-.5-2.04-.82-3-.82-1.34,0-2.21,.62-2.21,1.68,0,1.25,1.3,1.63,2.71,2.06,1.56,.46,3.24,1.18,3.24,3.22s-1.73,3.31-3.94,3.31Z"/>
      <path class="cls-6" d="M2574.57,102.27c-.67,0-1.01-.53-1.01-1.1s.34-1.06,1.01-1.06,1.01,.5,1.01,1.06-.34,1.1-1.01,1.1Zm-.74,13.51v-10.99l1.49-.31v11.31h-1.49Z"/>
      <path class="cls-6" d="M2583.4,116.1c-3.05,0-5.3-2.26-5.3-5.78s2.35-5.83,5.42-5.83,5.28,2.26,5.28,5.78-2.35,5.83-5.4,5.83Zm.05-10.27c-2.33,0-3.86,1.85-3.86,4.44s1.56,4.49,3.89,4.49,3.86-1.85,3.86-4.44-1.56-4.49-3.89-4.49Z"/>
      <path class="cls-6" d="M2598.81,115.79v-7.1c0-1.92-.77-2.78-2.42-2.78-1.2,0-2.42,.65-3.34,1.56v8.33h-1.49v-10.99l1.49-.31v1.8c1.15-1.15,2.59-1.8,3.75-1.8,2.21,0,3.5,1.37,3.5,3.77v7.54h-1.49Z"/>
    </g>
    <g>
      <path class="cls-6" d="M2241.06,86.99v-2.14c3.55-2.45,6.12-3.96,6.12-5.54,0-.96-.74-1.63-2.06-1.63-1.13,0-2.26,.5-3.43,1.32l-.77-2.21c1.22-.91,2.93-1.56,4.75-1.56,2.76,0,4.51,1.46,4.51,3.62,0,2.3-2.02,3.77-5.14,5.71h5.67l.02,2.42h-9.67Z"/>
      <path class="cls-6" d="M2258.34,87.35c-3.55,0-5.88-2.42-5.88-6.05s2.38-6.07,5.9-6.07,5.95,2.42,5.95,6.05-2.4,6.07-5.98,6.07Zm.02-9.79c-1.87,0-3.14,1.49-3.14,3.74s1.27,3.72,3.14,3.72,3.17-1.49,3.17-3.72-1.27-3.74-3.17-3.74Z"/>
      <path class="cls-6" d="M2272.14,87.35c-3.55,0-5.88-2.42-5.88-6.05s2.38-6.07,5.9-6.07,5.95,2.42,5.95,6.05-2.4,6.07-5.98,6.07Zm.02-9.79c-1.87,0-3.14,1.49-3.14,3.74s1.27,3.72,3.14,3.72,3.17-1.49,3.17-3.72-1.27-3.74-3.17-3.74Z"/>
      <path class="cls-6" d="M2288.87,71.29l.74,2.45c-3.36,.7-5.93,2.38-6.67,5.02l.07,.05c.89-.86,2.09-1.49,3.79-1.49,2.5,0,4.46,1.8,4.46,4.7s-2.09,5.33-5.57,5.33-5.67-2.88-5.67-6.58c0-4.37,3.12-8.42,8.83-9.48Zm-3.07,13.75c1.58,0,2.59-1.13,2.59-2.81s-1.03-2.66-2.54-2.66c-1.13,0-2.18,.55-2.74,1.03-.07,.31-.1,.72-.1,1.08,0,1.78,1.03,3.36,2.78,3.36Z"/>
      <path class="cls-6" d="M2241.92,115.79v-15h1.54v13.56h7.42v1.44h-8.95Z"/>
      <path class="cls-6" d="M2253.75,110.46c.05,2.47,1.54,4.25,3.84,4.25,1.2,0,2.35-.36,3.19-.91l.29,1.37c-.94,.58-2.16,.94-3.53,.94-3.17,0-5.3-2.38-5.3-5.71s2.21-5.9,5.18-5.9c2.42,0,4.01,1.58,4.01,4.06,0,.58-.1,1.27-.24,1.75l-7.44,.05v.12Zm6.19-1.32c.02-.12,.02-.36,.02-.48,0-1.68-.91-2.83-2.64-2.83-1.97,0-3.24,1.51-3.48,3.34l6.1-.02Z"/>
      <path class="cls-6" d="M2268.42,116.1c-.89,0-1.97-.26-2.69-.6l-1.49,.65v-16.54l1.49-.31v6.65c.74-.7,1.9-1.39,3.31-1.39,2.9,0,4.8,2.3,4.8,5.59,0,3.46-2.26,5.95-5.42,5.95Zm.34-10.18c-1.2,0-2.23,.5-3.02,1.22,0-.07,0,6.74,0,6.74,.67,.53,1.71,.86,2.76,.86,2.35,0,3.82-1.9,3.82-4.54,0-2.5-1.37-4.3-3.55-4.3Z"/>
      <path class="cls-6" d="M2282.26,114.47c-.74,.91-1.92,1.63-3.22,1.63-2.02,0-3.48-1.3-3.48-3.05,0-1.99,1.56-3.62,6.67-3.91v-.65c0-1.73-.77-2.62-2.59-2.62-1.2,0-2.66,.62-3.6,1.32l-.34-1.39c.98-.7,2.64-1.32,4.08-1.32,2.54,0,3.96,1.15,3.94,3.94v5.28c0,.79,.14,1.13,1.1,1.1l-.1,1.22c-1.44,.1-2.23-.48-2.4-1.56h-.07Zm-.02-4.32c-3.77,.43-5.11,1.27-5.11,2.74,0,1.18,.96,1.92,2.26,1.92,1.18,0,2.18-.67,2.86-1.44v-3.22Z"/>
      <path class="cls-6" d="M2294.29,115.79v-7.1c0-1.92-.77-2.78-2.42-2.78-1.2,0-2.42,.65-3.34,1.56v8.33h-1.49v-10.99l1.49-.31v1.8c1.15-1.15,2.59-1.8,3.75-1.8,2.21,0,3.5,1.37,3.5,3.77v7.54h-1.49Z"/>
      <path class="cls-6" d="M2303.74,116.1c-3.05,0-5.3-2.26-5.3-5.78s2.35-5.83,5.42-5.83,5.28,2.26,5.28,5.78-2.35,5.83-5.4,5.83Zm.05-10.27c-2.33,0-3.86,1.85-3.86,4.44s1.56,4.49,3.89,4.49,3.86-1.85,3.86-4.44-1.56-4.49-3.89-4.49Z"/>
      <path class="cls-6" d="M2319.15,115.79v-7.1c0-1.92-.77-2.78-2.42-2.78-1.2,0-2.42,.65-3.34,1.56v8.33h-1.49v-10.99l1.49-.31v1.8c1.15-1.15,2.59-1.8,3.75-1.8,2.21,0,3.5,1.37,3.5,3.77v7.54h-1.49Z"/>
      <path class="cls-6" d="M2323.04,110.63l.07-1.18h9.07l.07,1.18h-9.22Z"/>
      <path class="cls-6" d="M2334.94,115.79v-15h1.51v15h-1.51Z"/>
      <path class="cls-6" d="M2342.84,116.1c-1.3,0-2.66-.38-3.6-.98l.41-1.37c.94,.62,2.11,1.01,3.24,1.01,1.32,0,2.47-.65,2.47-1.85,0-1.32-1.39-1.7-2.76-2.14-1.51-.46-3.19-1.2-3.19-3.12s1.66-3.17,3.72-3.17c1.2,0,2.4,.34,3.34,.82l-.43,1.34c-.91-.5-2.04-.82-3-.82-1.34,0-2.21,.62-2.21,1.68,0,1.25,1.3,1.63,2.71,2.06,1.56,.46,3.24,1.18,3.24,3.22s-1.73,3.31-3.94,3.31Z"/>
      <path class="cls-6" d="M2350.95,115.79h-1.49v-10.99l1.49-.31v2.35c.72-1.42,1.8-2.35,3.24-2.35,.72,0,1.42,.22,1.92,.5l-.38,1.39c-.48-.29-1.06-.48-1.68-.48-1.15,0-2.23,.86-3.1,2.83v7.06Z"/>
      <path class="cls-6" d="M2363.65,114.47c-.74,.91-1.92,1.63-3.22,1.63-2.02,0-3.48-1.3-3.48-3.05,0-1.99,1.56-3.62,6.67-3.91v-.65c0-1.73-.77-2.62-2.59-2.62-1.2,0-2.66,.62-3.6,1.32l-.34-1.39c.98-.7,2.64-1.32,4.08-1.32,2.54,0,3.96,1.15,3.94,3.94v5.28c0,.79,.14,1.13,1.1,1.1l-.1,1.22c-1.44,.1-2.23-.48-2.4-1.56h-.07Zm-.02-4.32c-3.77,.43-5.11,1.27-5.11,2.74,0,1.18,.96,1.92,2.26,1.92,1.18,0,2.18-.67,2.86-1.44v-3.22Z"/>
      <path class="cls-6" d="M2369.21,110.46c.05,2.47,1.54,4.25,3.84,4.25,1.2,0,2.35-.36,3.19-.91l.29,1.37c-.94,.58-2.16,.94-3.53,.94-3.17,0-5.3-2.38-5.3-5.71s2.21-5.9,5.18-5.9c2.42,0,4.01,1.58,4.01,4.06,0,.58-.1,1.27-.24,1.75l-7.44,.05v.12Zm6.19-1.32c.02-.12,.02-.36,.02-.48,0-1.68-.91-2.83-2.64-2.83-1.97,0-3.24,1.51-3.48,3.34l6.1-.02Z"/>
      <path class="cls-6" d="M2379.7,115.79v-16.18l1.49-.31v16.49h-1.49Z"/>
      <path class="cls-6" d="M2395.11,115.79h-1.46l-4.27-15h1.58l3.5,12.82,3.82-12.82h1.82l3.89,12.82,3.36-12.82h1.54l-4.2,15h-1.49l-4.03-13.2-4.06,13.2Z"/>
      <path class="cls-6" d="M2416.76,114.47c-.74,.91-1.92,1.63-3.22,1.63-2.02,0-3.48-1.3-3.48-3.05,0-1.99,1.56-3.62,6.67-3.91v-.65c0-1.73-.77-2.62-2.59-2.62-1.2,0-2.66,.62-3.6,1.32l-.34-1.39c.98-.7,2.64-1.32,4.08-1.32,2.54,0,3.96,1.15,3.94,3.94v5.28c0,.79,.14,1.13,1.1,1.1l-.1,1.22c-1.44,.1-2.23-.48-2.4-1.56h-.07Zm-.02-4.32c-3.77,.43-5.11,1.27-5.11,2.74,0,1.18,.96,1.92,2.26,1.92,1.18,0,2.18-.67,2.86-1.44v-3.22Z"/>
      <path class="cls-6" d="M2423.02,115.79h-1.49v-10.99l1.49-.31v2.35c.72-1.42,1.8-2.35,3.24-2.35,.72,0,1.42,.22,1.92,.5l-.38,1.39c-.48-.29-1.06-.48-1.68-.48-1.15,0-2.23,.86-3.1,2.83v7.06Z"/>
    </g>
    <g>
      <path class="cls-6" d="M2145.06,236.99v-2.14c3.55-2.45,6.12-3.96,6.12-5.54,0-.96-.74-1.63-2.06-1.63-1.13,0-2.26,.5-3.43,1.32l-.77-2.21c1.22-.91,2.93-1.56,4.75-1.56,2.76,0,4.51,1.46,4.51,3.62,0,2.3-2.02,3.77-5.14,5.71h5.67l.02,2.42h-9.67Z"/>
      <path class="cls-6" d="M2162.34,237.35c-3.55,0-5.88-2.42-5.88-6.05s2.38-6.07,5.9-6.07,5.95,2.42,5.95,6.05-2.4,6.07-5.98,6.07Zm.02-9.79c-1.87,0-3.14,1.49-3.14,3.74s1.27,3.72,3.14,3.72,3.17-1.49,3.17-3.72-1.27-3.74-3.17-3.74Z"/>
      <path class="cls-6" d="M2176.14,237.35c-3.55,0-5.88-2.42-5.88-6.05s2.38-6.07,5.9-6.07,5.95,2.42,5.95,6.05-2.4,6.07-5.98,6.07Zm.02-9.79c-1.87,0-3.14,1.49-3.14,3.74s1.27,3.72,3.14,3.72,3.17-1.49,3.17-3.72-1.27-3.74-3.17-3.74Z"/>
      <path class="cls-6" d="M2189.94,237.35c-3.55,0-5.88-2.42-5.88-6.05s2.38-6.07,5.9-6.07,5.95,2.42,5.95,6.05-2.4,6.07-5.98,6.07Zm.02-9.79c-1.87,0-3.14,1.49-3.14,3.74s1.27,3.72,3.14,3.72,3.17-1.49,3.17-3.72-1.27-3.74-3.17-3.74Z"/>
      <path class="cls-6" d="M2145.97,265.79v-15h1.51v15h-1.51Z"/>
      <path class="cls-6" d="M2153.86,266.1c-1.3,0-2.66-.38-3.6-.98l.41-1.37c.94,.62,2.11,1.01,3.24,1.01,1.32,0,2.47-.65,2.47-1.85,0-1.32-1.39-1.7-2.76-2.14-1.51-.46-3.19-1.2-3.19-3.12s1.66-3.17,3.72-3.17c1.2,0,2.4,.34,3.34,.82l-.43,1.34c-.91-.5-2.04-.82-3-.82-1.34,0-2.21,.62-2.21,1.68,0,1.25,1.3,1.63,2.71,2.06,1.56,.46,3.24,1.18,3.24,3.22s-1.73,3.31-3.94,3.31Z"/>
      <path class="cls-6" d="M2161.98,265.79h-1.49v-10.99l1.49-.31v2.35c.72-1.42,1.8-2.35,3.24-2.35,.72,0,1.42,.22,1.92,.5l-.38,1.39c-.48-.29-1.06-.48-1.68-.48-1.15,0-2.23,.86-3.1,2.83v7.06Z"/>
      <path class="cls-6" d="M2174.67,264.47c-.74,.91-1.92,1.63-3.22,1.63-2.02,0-3.48-1.3-3.48-3.05,0-1.99,1.56-3.62,6.67-3.91v-.65c0-1.73-.77-2.62-2.59-2.62-1.2,0-2.66,.62-3.6,1.32l-.34-1.39c.98-.7,2.64-1.32,4.08-1.32,2.54,0,3.96,1.15,3.94,3.94v5.28c0,.79,.14,1.13,1.1,1.1l-.1,1.22c-1.44,.1-2.23-.48-2.4-1.56h-.07Zm-.02-4.32c-3.77,.43-5.11,1.27-5.11,2.74,0,1.18,.96,1.92,2.26,1.92,1.18,0,2.18-.67,2.86-1.44v-3.22Z"/>
      <path class="cls-6" d="M2180.24,260.46c.05,2.47,1.54,4.25,3.84,4.25,1.2,0,2.35-.36,3.19-.91l.29,1.37c-.94,.58-2.16,.94-3.53,.94-3.17,0-5.3-2.38-5.3-5.71s2.21-5.9,5.18-5.9c2.42,0,4.01,1.58,4.01,4.06,0,.58-.1,1.27-.24,1.75l-7.44,.05v.12Zm6.19-1.32c.02-.12,.02-.36,.02-.48,0-1.68-.91-2.83-2.64-2.83-1.97,0-3.24,1.51-3.48,3.34l6.1-.02Z"/>
      <path class="cls-6" d="M2190.73,265.79v-16.18l1.49-.31v16.49h-1.49Z"/>
      <path class="cls-6" d="M2196.44,252.27c-.67,0-1.01-.53-1.01-1.1s.34-1.06,1.01-1.06,1.01,.5,1.01,1.06-.34,1.1-1.01,1.1Zm-.74,13.51v-10.99l1.49-.31v11.31h-1.49Z"/>
      <path class="cls-6" d="M2212.93,266.1c-4.18,0-7.37-3.14-7.37-7.78s3.1-7.85,7.39-7.85,7.37,3.12,7.37,7.75-3.1,7.87-7.39,7.87Zm-.02-14.26c-3.36,0-5.78,2.59-5.78,6.38s2.47,6.5,5.88,6.5,5.76-2.62,5.76-6.41-2.45-6.48-5.86-6.48Z"/>
      <path class="cls-6" d="M2227.83,266.1c-3.31,0-5.38-2.38-5.38-5.78s2.28-5.83,5.4-5.83c1.34,0,2.5,.34,3.43,.94l-.38,1.34c-.84-.55-1.9-.89-3.05-.89-2.38,0-3.86,1.78-3.86,4.39s1.56,4.44,3.89,4.44c1.1,0,2.21-.36,3.05-.91l.31,1.37c-.94,.58-2.14,.94-3.41,.94Z"/>
      <path class="cls-6" d="M2238.54,266.1c-3.31,0-5.38-2.38-5.38-5.78s2.28-5.83,5.4-5.83c1.34,0,2.5,.34,3.43,.94l-.38,1.34c-.84-.55-1.9-.89-3.05-.89-2.38,0-3.86,1.78-3.86,4.39s1.56,4.44,3.89,4.44c1.1,0,2.21-.36,3.05-.91l.31,1.37c-.94,.58-2.14,.94-3.41,.94Z"/>
      <path class="cls-6" d="M2246.09,254.79v7.1c0,1.92,.77,2.78,2.38,2.78,1.27,0,2.5-.65,3.38-1.56v-8.33h1.49v10.99l-1.49,.31v-1.78c-1.13,1.15-2.57,1.78-3.79,1.78-2.14,0-3.46-1.37-3.46-3.77v-7.54h1.49Z"/>
      <path class="cls-6" d="M2261.48,254.55c2.98,0,4.92,2.35,4.92,5.69s-2.26,5.86-5.42,5.86c-.86,0-1.97-.24-2.69-.58v5.86h-1.49v-16.63l1.49-.31v1.46c.74-.7,1.85-1.34,3.19-1.34Zm-3.19,9.34c.67,.53,1.71,.86,2.76,.86,2.35,0,3.82-1.9,3.82-4.49s-1.39-4.34-3.62-4.34c-1.13,0-2.16,.5-2.95,1.22,0-.07,0,6.74,0,6.74Z"/>
      <path class="cls-6" d="M2274.92,264.47c-.74,.91-1.92,1.63-3.22,1.63-2.02,0-3.48-1.3-3.48-3.05,0-1.99,1.56-3.62,6.67-3.91v-.65c0-1.73-.77-2.62-2.59-2.62-1.2,0-2.66,.62-3.6,1.32l-.34-1.39c.98-.7,2.64-1.32,4.08-1.32,2.54,0,3.96,1.15,3.94,3.94v5.28c0,.79,.14,1.13,1.1,1.1l-.1,1.22c-1.44,.1-2.23-.48-2.4-1.56h-.07Zm-.02-4.32c-3.77,.43-5.11,1.27-5.11,2.74,0,1.18,.96,1.92,2.26,1.92,1.18,0,2.18-.67,2.86-1.44v-3.22Z"/>
      <path class="cls-6" d="M2282.72,266.15c-2.09,0-3.02-1.15-2.95-3.46l.17-6.5-1.68-.1,.07-.94,1.66-.38,.07-2.5h1.42l-.07,2.57h3.67l-.07,1.32h-3.65l-.17,6.58c-.05,1.39,.46,2.06,1.61,2.06,.72,0,1.44-.24,2.11-.53l.26,1.3c-.77,.36-1.66,.58-2.45,.58Z"/>
      <path class="cls-6" d="M2288.36,252.27c-.67,0-1.01-.53-1.01-1.1s.34-1.06,1.01-1.06,1.01,.5,1.01,1.06-.34,1.1-1.01,1.1Zm-.74,13.51v-10.99l1.49-.31v11.31h-1.49Z"/>
      <path class="cls-6" d="M2297.19,266.1c-3.05,0-5.3-2.26-5.3-5.78s2.35-5.83,5.42-5.83,5.28,2.26,5.28,5.78-2.35,5.83-5.4,5.83Zm.05-10.27c-2.33,0-3.86,1.85-3.86,4.44s1.56,4.49,3.89,4.49,3.86-1.85,3.86-4.44-1.56-4.49-3.89-4.49Z"/>
      <path class="cls-6" d="M2312.6,265.79v-7.1c0-1.92-.77-2.78-2.42-2.78-1.2,0-2.42,.65-3.34,1.56v8.33h-1.49v-10.99l1.49-.31v1.8c1.15-1.15,2.59-1.8,3.75-1.8,2.21,0,3.5,1.37,3.5,3.77v7.54h-1.49Z"/>
      <path class="cls-6" d="M2323.13,265.79v-15h9.07v1.42h-7.54v5.38h6.29v1.39h-6.29v5.4h7.54v1.42h-9.07Z"/>
      <path class="cls-6" d="M2342.36,265.79v-7.1c0-1.92-.77-2.78-2.42-2.78-1.2,0-2.42,.65-3.34,1.56v8.33h-1.49v-10.99l1.49-.31v1.8c1.15-1.15,2.59-1.8,3.75-1.8,2.21,0,3.5,1.37,3.5,3.77v7.54h-1.49Z"/>
      <path class="cls-6" d="M2354.62,249.61l1.49-.31v16.49h-1.49v-1.03c-.72,.67-1.82,1.34-3.19,1.34-2.95,0-4.92-2.38-4.92-5.71s2.28-5.83,5.45-5.83c.94,0,1.94,.26,2.66,.6v-5.54Zm-2.74,6.29c-2.35,0-3.84,1.87-3.84,4.46s1.42,4.37,3.65,4.37c1.13,0,2.16-.5,2.93-1.22,0,.05,0-6.77,0-6.77-.67-.53-1.68-.84-2.74-.84Z"/>
      <path class="cls-6" d="M2362.23,266.1c-1.3,0-2.66-.38-3.6-.98l.41-1.37c.94,.62,2.11,1.01,3.24,1.01,1.32,0,2.47-.65,2.47-1.85,0-1.32-1.39-1.7-2.76-2.14-1.51-.46-3.19-1.2-3.19-3.12s1.66-3.17,3.72-3.17c1.2,0,2.4,.34,3.34,.82l-.43,1.34c-.91-.5-2.04-.82-3-.82-1.34,0-2.21,.62-2.21,1.68,0,1.25,1.3,1.63,2.71,2.06,1.56,.46,3.24,1.18,3.24,3.22s-1.73,3.31-3.94,3.31Z"/>
    </g>
    <g>
      <path class="cls-6" d="M1747.77,78.35l-2.78,.77-.07-2.42,5.66-1.49v11.79h-2.81v-8.64Z"/>
      <path class="cls-6" d="M1756,91.26l-.74-2.42c3.36-.72,5.9-2.38,6.6-5.02l-.07-.05c-.84,.84-2.06,1.46-3.67,1.46-2.52,0-4.51-1.75-4.51-4.63,0-3.02,2.09-5.38,5.57-5.38s5.67,2.86,5.67,6.58c0,4.37-3.1,8.4-8.83,9.46Zm3.07-13.73c-1.58,0-2.59,1.13-2.59,2.81s1.03,2.66,2.54,2.66c1.13,0,2.18-.55,2.74-1.06,.07-.29,.1-.7,.1-1.06,0-1.78-1.03-3.36-2.78-3.36Z"/>
      <path class="cls-6" d="M1766.1,78.11l.07-2.54h10.49v2.09l-6.6,13.63h-2.81l6.48-13.18h-7.63Z"/>
      <path class="cls-6" d="M1782.42,81.56c3.34,0,5.28,1.92,5.28,4.58,0,3.14-2.38,5.33-5.74,5.33-1.51,0-3.22-.38-4.34-.96l.36-2.52c.98,.5,2.59,1.06,3.94,1.06,1.78,0,3-1.03,3-2.71,0-1.39-1.06-2.57-3.24-2.57-1.3,0-2.16,.17-2.98,.43l-.53-.53,1.01-8.11h8.14l.07,2.47h-5.9l-.48,3.62c.38-.02,.74-.1,1.42-.1Z"/>
      <path class="cls-6" d="M1745.92,115.79v-15h1.54v13.56h7.42v1.44h-8.95Z"/>
      <path class="cls-6" d="M1757.75,110.46c.05,2.47,1.54,4.25,3.84,4.25,1.2,0,2.35-.36,3.19-.91l.29,1.37c-.94,.58-2.16,.94-3.53,.94-3.17,0-5.3-2.38-5.3-5.71s2.21-5.9,5.18-5.9c2.42,0,4.01,1.58,4.01,4.06,0,.58-.1,1.27-.24,1.75l-7.44,.05v.12Zm6.19-1.32c.02-.12,.02-.36,.02-.48,0-1.68-.91-2.83-2.64-2.83-1.97,0-3.24,1.51-3.48,3.34l6.1-.02Z"/>
      <path class="cls-6" d="M1772.42,116.1c-.89,0-1.97-.26-2.69-.6l-1.49,.65v-16.54l1.49-.31v6.65c.74-.7,1.9-1.39,3.31-1.39,2.9,0,4.8,2.3,4.8,5.59,0,3.46-2.26,5.95-5.42,5.95Zm.34-10.18c-1.2,0-2.23,.5-3.02,1.22,0-.07,0,6.74,0,6.74,.67,.53,1.71,.86,2.76,.86,2.35,0,3.82-1.9,3.82-4.54,0-2.5-1.37-4.3-3.55-4.3Z"/>
      <path class="cls-6" d="M1786.26,114.47c-.74,.91-1.92,1.63-3.22,1.63-2.02,0-3.48-1.3-3.48-3.05,0-1.99,1.56-3.62,6.67-3.91v-.65c0-1.73-.77-2.62-2.59-2.62-1.2,0-2.66,.62-3.6,1.32l-.34-1.39c.98-.7,2.64-1.32,4.08-1.32,2.54,0,3.96,1.15,3.94,3.94v5.28c0,.79,.14,1.13,1.1,1.1l-.1,1.22c-1.44,.1-2.23-.48-2.4-1.56h-.07Zm-.02-4.32c-3.77,.43-5.11,1.27-5.11,2.74,0,1.18,.96,1.92,2.26,1.92,1.18,0,2.18-.67,2.86-1.44v-3.22Z"/>
      <path class="cls-6" d="M1798.29,115.79v-7.1c0-1.92-.77-2.78-2.42-2.78-1.2,0-2.42,.65-3.34,1.56v8.33h-1.49v-10.99l1.49-.31v1.8c1.15-1.15,2.59-1.8,3.75-1.8,2.21,0,3.5,1.37,3.5,3.77v7.54h-1.49Z"/>
      <path class="cls-6" d="M1803.95,110.46c.05,2.47,1.54,4.25,3.84,4.25,1.2,0,2.35-.36,3.19-.91l.29,1.37c-.94,.58-2.16,.94-3.53,.94-3.17,0-5.3-2.38-5.3-5.71s2.21-5.9,5.18-5.9c2.42,0,4.01,1.58,4.01,4.06,0,.58-.1,1.27-.24,1.75l-7.44,.05v.12Zm6.19-1.32c.02-.12,.02-.36,.02-.48,0-1.68-.91-2.83-2.64-2.83-1.97,0-3.24,1.51-3.48,3.34l6.1-.02Z"/>
      <path class="cls-6" d="M1817.1,116.1c-1.3,0-2.66-.38-3.6-.98l.41-1.37c.94,.62,2.11,1.01,3.24,1.01,1.32,0,2.47-.65,2.47-1.85,0-1.32-1.39-1.7-2.76-2.14-1.51-.46-3.19-1.2-3.19-3.12s1.66-3.17,3.72-3.17c1.2,0,2.4,.34,3.34,.82l-.43,1.34c-.91-.5-2.04-.82-3-.82-1.34,0-2.21,.62-2.21,1.68,0,1.25,1.3,1.63,2.71,2.06,1.56,.46,3.24,1.18,3.24,3.22s-1.73,3.31-3.94,3.31Z"/>
      <path class="cls-6" d="M1824.52,110.46c.05,2.47,1.54,4.25,3.84,4.25,1.2,0,2.35-.36,3.19-.91l.29,1.37c-.94,.58-2.16,.94-3.53,.94-3.17,0-5.3-2.38-5.3-5.71s2.21-5.9,5.18-5.9c2.42,0,4.01,1.58,4.01,4.06,0,.58-.1,1.27-.24,1.75l-7.44,.05v.12Zm6.19-1.32c.02-.12,.02-.36,.02-.48,0-1.68-.91-2.83-2.64-2.83-1.97,0-3.24,1.51-3.48,3.34l6.1-.02Z"/>
      <path class="cls-6" d="M1851.28,103.06c-1.2-.77-2.59-1.2-4.18-1.2-3.26,0-5.66,2.33-5.66,6.41s2.28,6.43,5.71,6.43c1.63,0,3.17-.58,4.2-1.34l.29,1.51c-1.1,.72-2.76,1.22-4.51,1.22-4.34,0-7.25-3.02-7.25-7.78s3.05-7.85,7.25-7.85c1.82,0,3.53,.55,4.63,1.22l-.48,1.37Z"/>
      <path class="cls-6" d="M1855.31,102.27c-.67,0-1.01-.53-1.01-1.1s.34-1.06,1.01-1.06,1.01,.5,1.01,1.06-.34,1.1-1.01,1.1Zm-.74,13.51v-10.99l1.49-.31v11.31h-1.49Z"/>
      <path class="cls-6" d="M1863.59,115.81h-1.34l-4.34-11.02h1.61l3.48,9.07,3.36-9.07h1.56l-4.32,11.02Z"/>
      <path class="cls-6" d="M1870.5,102.27c-.67,0-1.01-.53-1.01-1.1s.34-1.06,1.01-1.06,1.01,.5,1.01,1.06-.34,1.1-1.01,1.1Zm-.74,13.51v-10.99l1.49-.31v11.31h-1.49Z"/>
      <path class="cls-6" d="M1874.75,115.79v-16.18l1.49-.31v16.49h-1.49Z"/>
      <path class="cls-6" d="M1750.72,144.59h-1.46l-4.27-15h1.58l3.5,12.82,3.82-12.82h1.82l3.89,12.82,3.36-12.82h1.54l-4.2,15h-1.49l-4.03-13.2-4.06,13.2Z"/>
      <path class="cls-6" d="M1772.37,143.27c-.74,.91-1.92,1.63-3.22,1.63-2.02,0-3.48-1.3-3.48-3.05,0-1.99,1.56-3.62,6.67-3.91v-.65c0-1.73-.77-2.62-2.59-2.62-1.2,0-2.66,.62-3.6,1.32l-.34-1.39c.98-.7,2.64-1.32,4.08-1.32,2.54,0,3.96,1.15,3.94,3.94v5.28c0,.79,.14,1.13,1.1,1.1l-.1,1.22c-1.44,.1-2.23-.48-2.4-1.56h-.07Zm-.02-4.32c-3.77,.43-5.11,1.27-5.11,2.74,0,1.18,.96,1.92,2.26,1.92,1.18,0,2.18-.67,2.86-1.44v-3.22Z"/>
      <path class="cls-6" d="M1778.63,144.59h-1.49v-10.99l1.49-.31v2.35c.72-1.42,1.8-2.35,3.24-2.35,.72,0,1.42,.22,1.92,.5l-.38,1.39c-.48-.29-1.06-.48-1.68-.48-1.15,0-2.23,.86-3.1,2.83v7.06Z"/>
      <path class="cls-6" d="M1801.62,140.41c0,2.45-1.61,4.18-5.4,4.18h-4.87v-15h4.68c3.6,0,5.11,1.63,5.11,3.91,0,1.46-.89,2.9-2.88,3.41,2.21,.43,3.36,1.75,3.36,3.5Zm-5.52-9.43h-3.22v5.4h2.98c2.26,0,3.74-.98,3.74-2.76,0-1.61-1.13-2.64-3.5-2.64Zm-.14,6.79h-3.07v5.42h3.46c2.64,0,3.75-1.08,3.75-2.78s-1.46-2.64-4.13-2.64Z"/>
      <path class="cls-6" d="M1805.15,139.26c.05,2.47,1.54,4.25,3.84,4.25,1.2,0,2.35-.36,3.19-.91l.29,1.37c-.94,.58-2.16,.94-3.53,.94-3.17,0-5.3-2.38-5.3-5.71s2.21-5.9,5.18-5.9c2.42,0,4.01,1.58,4.01,4.06,0,.58-.1,1.27-.24,1.75l-7.44,.05v.12Zm6.19-1.32c.02-.12,.02-.36,.02-.48,0-1.68-.91-2.83-2.64-2.83-1.97,0-3.24,1.51-3.48,3.34l6.1-.02Z"/>
      <path class="cls-6" d="M1814.99,142.86c0-.91,.79-1.7,1.8-2.09-1.06-.65-1.78-1.85-1.78-3.36,0-2.33,1.73-4.13,4.32-4.13,1.15,0,1.99,.31,2.59,.65l3.05-.24,.07,1.49-2.42-.24c.53,.53,.89,1.58,.89,2.47,0,2.33-1.82,4.03-4.27,4.03-.6,0-1.08-.12-1.63-.31-.58,.24-1.22,.7-1.22,1.32,0,.7,.53,1.13,2.5,1.13,0,0,1.58,0,1.42,0,3.19,0,4.56,1.08,4.56,2.88,0,2.42-2.71,4.08-5.79,4.08s-4.97-1.3-4.97-3.22c0-1.25,.96-2.35,2.38-2.71-.94-.34-1.49-.96-1.49-1.75Zm.55,4.2c0,1.3,1.42,2.26,3.74,2.26s4.13-1.1,4.13-2.59c0-1.3-1.15-1.75-3.34-1.75-.74,0-1.68-.02-2.3-.07-1.32,.36-2.23,1.22-2.23,2.16Zm3.77-6.82c1.68,0,2.74-1.2,2.74-2.88s-.96-2.86-2.81-2.86c-1.7,0-2.76,1.22-2.76,2.93,0,1.58,1.06,2.81,2.83,2.81Z"/>
      <path class="cls-6" d="M1827.64,131.07c-.67,0-1.01-.53-1.01-1.1s.34-1.06,1.01-1.06,1.01,.5,1.01,1.06-.34,1.1-1.01,1.1Zm-.74,13.51v-10.99l1.49-.31v11.31h-1.49Z"/>
      <path class="cls-6" d="M1839.13,144.59v-7.1c0-1.92-.77-2.78-2.42-2.78-1.2,0-2.42,.65-3.34,1.56v8.33h-1.49v-10.99l1.49-.31v1.8c1.15-1.15,2.59-1.8,3.75-1.8,2.21,0,3.5,1.37,3.5,3.77v7.54h-1.49Z"/>
      <path class="cls-6" d="M1846.67,144.9c-1.3,0-2.66-.38-3.6-.98l.41-1.37c.94,.62,2.11,1.01,3.24,1.01,1.32,0,2.47-.65,2.47-1.85,0-1.32-1.39-1.7-2.76-2.14-1.51-.46-3.19-1.2-3.19-3.12s1.66-3.17,3.72-3.17c1.2,0,2.4,.34,3.34,.82l-.43,1.34c-.91-.5-2.04-.82-3-.82-1.34,0-2.21,.62-2.21,1.68,0,1.25,1.3,1.63,2.71,2.06,1.56,.46,3.24,1.18,3.24,3.22s-1.73,3.31-3.94,3.31Z"/>
    </g>
    <g>
      <path class="cls-6" d="M1987.77,78.35l-2.78,.77-.07-2.42,5.66-1.49v11.79h-2.81v-8.64Z"/>
      <path class="cls-6" d="M1996,91.26l-.74-2.42c3.36-.72,5.9-2.38,6.6-5.02l-.07-.05c-.84,.84-2.06,1.46-3.67,1.46-2.52,0-4.51-1.75-4.51-4.63,0-3.02,2.09-5.38,5.57-5.38s5.67,2.86,5.67,6.58c0,4.37-3.1,8.4-8.83,9.46Zm3.07-13.73c-1.58,0-2.59,1.13-2.59,2.81s1.03,2.66,2.54,2.66c1.13,0,2.18-.55,2.74-1.06,.07-.29,.1-.7,.1-1.06,0-1.78-1.03-3.36-2.78-3.36Z"/>
      <path class="cls-6" d="M2009.03,91.26l-.74-2.42c3.36-.72,5.9-2.38,6.6-5.02l-.07-.05c-.84,.84-2.06,1.46-3.67,1.46-2.52,0-4.51-1.75-4.51-4.63,0-3.02,2.09-5.38,5.57-5.38s5.67,2.86,5.67,6.58c0,4.37-3.1,8.4-8.83,9.46Zm3.07-13.73c-1.58,0-2.59,1.13-2.59,2.81s1.03,2.66,2.54,2.66c1.13,0,2.18-.55,2.74-1.06,.07-.29,.1-.7,.1-1.06,0-1.78-1.03-3.36-2.78-3.36Z"/>
      <path class="cls-6" d="M2025.69,87.35c-3.55,0-5.88-2.42-5.88-6.05s2.38-6.07,5.9-6.07,5.95,2.42,5.95,6.05-2.4,6.07-5.98,6.07Zm.02-9.79c-1.87,0-3.14,1.49-3.14,3.74s1.27,3.72,3.14,3.72,3.17-1.49,3.17-3.72-1.27-3.74-3.17-3.74Z"/>
      <path class="cls-6" d="M1985.92,115.79v-15h1.54v13.56h7.42v1.44h-8.95Z"/>
      <path class="cls-6" d="M1997.75,110.46c.05,2.47,1.54,4.25,3.84,4.25,1.2,0,2.35-.36,3.19-.91l.29,1.37c-.94,.58-2.16,.94-3.53,.94-3.17,0-5.3-2.38-5.3-5.71s2.21-5.9,5.18-5.9c2.42,0,4.01,1.58,4.01,4.06,0,.58-.1,1.27-.24,1.75l-7.44,.05v.12Zm6.19-1.32c.02-.12,.02-.36,.02-.48,0-1.68-.91-2.83-2.64-2.83-1.97,0-3.24,1.51-3.48,3.34l6.1-.02Z"/>
      <path class="cls-6" d="M2012.42,116.1c-.89,0-1.97-.26-2.69-.6l-1.49,.65v-16.54l1.49-.31v6.65c.74-.7,1.9-1.39,3.31-1.39,2.9,0,4.8,2.3,4.8,5.59,0,3.46-2.26,5.95-5.42,5.95Zm.34-10.18c-1.2,0-2.23,.5-3.02,1.22,0-.07,0,6.74,0,6.74,.67,.53,1.71,.86,2.76,.86,2.35,0,3.82-1.9,3.82-4.54,0-2.5-1.37-4.3-3.55-4.3Z"/>
      <path class="cls-6" d="M2026.26,114.47c-.74,.91-1.92,1.63-3.22,1.63-2.02,0-3.48-1.3-3.48-3.05,0-1.99,1.56-3.62,6.67-3.91v-.65c0-1.73-.77-2.62-2.59-2.62-1.2,0-2.66,.62-3.6,1.32l-.34-1.39c.98-.7,2.64-1.32,4.08-1.32,2.54,0,3.96,1.15,3.94,3.94v5.28c0,.79,.14,1.13,1.1,1.1l-.1,1.22c-1.44,.1-2.23-.48-2.4-1.56h-.07Zm-.02-4.32c-3.77,.43-5.11,1.27-5.11,2.74,0,1.18,.96,1.92,2.26,1.92,1.18,0,2.18-.67,2.86-1.44v-3.22Z"/>
      <path class="cls-6" d="M2038.29,115.79v-7.1c0-1.92-.77-2.78-2.42-2.78-1.2,0-2.42,.65-3.34,1.56v8.33h-1.49v-10.99l1.49-.31v1.8c1.15-1.15,2.59-1.8,3.75-1.8,2.21,0,3.5,1.37,3.5,3.77v7.54h-1.49Z"/>
      <path class="cls-6" d="M2043.95,110.46c.05,2.47,1.54,4.25,3.84,4.25,1.2,0,2.35-.36,3.19-.91l.29,1.37c-.94,.58-2.16,.94-3.53,.94-3.17,0-5.3-2.38-5.3-5.71s2.21-5.9,5.18-5.9c2.42,0,4.01,1.58,4.01,4.06,0,.58-.1,1.27-.24,1.75l-7.44,.05v.12Zm6.19-1.32c.02-.12,.02-.36,.02-.48,0-1.68-.91-2.83-2.64-2.83-1.97,0-3.24,1.51-3.48,3.34l6.1-.02Z"/>
      <path class="cls-6" d="M2057.1,116.1c-1.3,0-2.66-.38-3.6-.98l.41-1.37c.94,.62,2.11,1.01,3.24,1.01,1.32,0,2.47-.65,2.47-1.85,0-1.32-1.39-1.7-2.76-2.14-1.51-.46-3.19-1.2-3.19-3.12s1.66-3.17,3.72-3.17c1.2,0,2.4,.34,3.34,.82l-.43,1.34c-.91-.5-2.04-.82-3-.82-1.34,0-2.21,.62-2.21,1.68,0,1.25,1.3,1.63,2.71,2.06,1.56,.46,3.24,1.18,3.24,3.22s-1.73,3.31-3.94,3.31Z"/>
      <path class="cls-6" d="M2064.52,110.46c.05,2.47,1.54,4.25,3.84,4.25,1.2,0,2.35-.36,3.19-.91l.29,1.37c-.94,.58-2.16,.94-3.53,.94-3.17,0-5.3-2.38-5.3-5.71s2.21-5.9,5.18-5.9c2.42,0,4.01,1.58,4.01,4.06,0,.58-.1,1.27-.24,1.75l-7.44,.05v.12Zm6.19-1.32c.02-.12,.02-.36,.02-.48,0-1.68-.91-2.83-2.64-2.83-1.97,0-3.24,1.51-3.48,3.34l6.1-.02Z"/>
      <path class="cls-6" d="M2091.28,103.06c-1.2-.77-2.59-1.2-4.18-1.2-3.26,0-5.66,2.33-5.66,6.41s2.28,6.43,5.71,6.43c1.63,0,3.17-.58,4.2-1.34l.29,1.51c-1.1,.72-2.76,1.22-4.51,1.22-4.34,0-7.25-3.02-7.25-7.78s3.05-7.85,7.25-7.85c1.82,0,3.53,.55,4.63,1.22l-.48,1.37Z"/>
      <path class="cls-6" d="M2095.31,102.27c-.67,0-1.01-.53-1.01-1.1s.34-1.06,1.01-1.06,1.01,.5,1.01,1.06-.34,1.1-1.01,1.1Zm-.74,13.51v-10.99l1.49-.31v11.31h-1.49Z"/>
      <path class="cls-6" d="M2103.59,115.81h-1.34l-4.34-11.02h1.61l3.48,9.07,3.36-9.07h1.56l-4.32,11.02Z"/>
      <path class="cls-6" d="M2110.5,102.27c-.67,0-1.01-.53-1.01-1.1s.34-1.06,1.01-1.06,1.01,.5,1.01,1.06-.34,1.1-1.01,1.1Zm-.74,13.51v-10.99l1.49-.31v11.31h-1.49Z"/>
      <path class="cls-6" d="M2114.75,115.79v-16.18l1.49-.31v16.49h-1.49Z"/>
      <path class="cls-6" d="M1990.72,144.59h-1.46l-4.27-15h1.58l3.5,12.82,3.82-12.82h1.82l3.89,12.82,3.36-12.82h1.54l-4.2,15h-1.49l-4.03-13.2-4.06,13.2Z"/>
      <path class="cls-6" d="M2012.37,143.27c-.74,.91-1.92,1.63-3.22,1.63-2.02,0-3.48-1.3-3.48-3.05,0-1.99,1.56-3.62,6.67-3.91v-.65c0-1.73-.77-2.62-2.59-2.62-1.2,0-2.66,.62-3.6,1.32l-.34-1.39c.98-.7,2.64-1.32,4.08-1.32,2.54,0,3.96,1.15,3.94,3.94v5.28c0,.79,.14,1.13,1.1,1.1l-.1,1.22c-1.44,.1-2.23-.48-2.4-1.56h-.07Zm-.02-4.32c-3.77,.43-5.11,1.27-5.11,2.74,0,1.18,.96,1.92,2.26,1.92,1.18,0,2.18-.67,2.86-1.44v-3.22Z"/>
      <path class="cls-6" d="M2018.63,144.59h-1.49v-10.99l1.49-.31v2.35c.72-1.42,1.8-2.35,3.24-2.35,.72,0,1.42,.22,1.92,.5l-.38,1.39c-.48-.29-1.06-.48-1.68-.48-1.15,0-2.23,.86-3.1,2.83v7.06Z"/>
      <path class="cls-6" d="M2031.35,144.59v-15h9.07v1.42h-7.54v5.38h6.29v1.39h-6.29v5.4h7.54v1.42h-9.07Z"/>
      <path class="cls-6" d="M2050.58,144.59v-7.1c0-1.92-.77-2.78-2.42-2.78-1.2,0-2.42,.65-3.34,1.56v8.33h-1.49v-10.99l1.49-.31v1.8c1.15-1.15,2.59-1.8,3.75-1.8,2.21,0,3.5,1.37,3.5,3.77v7.54h-1.49Z"/>
      <path class="cls-6" d="M2062.84,128.41l1.49-.31v16.49h-1.49v-1.03c-.72,.67-1.82,1.34-3.19,1.34-2.95,0-4.92-2.38-4.92-5.71s2.28-5.83,5.45-5.83c.94,0,1.94,.26,2.66,.6v-5.54Zm-2.74,6.29c-2.35,0-3.84,1.87-3.84,4.46s1.42,4.37,3.65,4.37c1.13,0,2.16-.5,2.93-1.22,0,.05,0-6.77,0-6.77-.67-.53-1.68-.84-2.74-.84Z"/>
      <path class="cls-6" d="M2070.45,144.9c-1.3,0-2.66-.38-3.6-.98l.41-1.37c.94,.62,2.11,1.01,3.24,1.01,1.32,0,2.47-.65,2.47-1.85,0-1.32-1.39-1.7-2.76-2.14-1.51-.46-3.19-1.2-3.19-3.12s1.66-3.17,3.72-3.17c1.2,0,2.4,.34,3.34,.82l-.43,1.34c-.91-.5-2.04-.82-3-.82-1.34,0-2.21,.62-2.21,1.68,0,1.25,1.3,1.63,2.71,2.06,1.56,.46,3.24,1.18,3.24,3.22s-1.73,3.31-3.94,3.31Z"/>
    </g>
    <g>
      <path class="cls-6" d="M867.77,78.35l-2.78,.77-.07-2.42,5.66-1.49v11.79h-2.81v-8.64Z"/>
      <path class="cls-6" d="M876,91.26l-.74-2.42c3.36-.72,5.9-2.38,6.6-5.02l-.07-.05c-.84,.84-2.06,1.46-3.67,1.46-2.52,0-4.51-1.75-4.51-4.63,0-3.02,2.09-5.38,5.57-5.38s5.67,2.86,5.67,6.58c0,4.37-3.1,8.4-8.83,9.46Zm3.07-13.73c-1.58,0-2.59,1.13-2.59,2.81s1.03,2.66,2.54,2.66c1.13,0,2.18-.55,2.74-1.06,.07-.29,.1-.7,.1-1.06,0-1.78-1.03-3.36-2.78-3.36Z"/>
      <path class="cls-6" d="M886.85,86.99v-2.14c3.55-2.45,6.12-3.96,6.12-5.54,0-.96-.74-1.63-2.06-1.63-1.13,0-2.26,.5-3.43,1.32l-.77-2.21c1.22-.91,2.93-1.56,4.75-1.56,2.76,0,4.51,1.46,4.51,3.62,0,2.3-2.02,3.77-5.14,5.71h5.67l.02,2.42h-9.67Z"/>
      <path class="cls-6" d="M904.13,87.35c-3.55,0-5.88-2.42-5.88-6.05s2.38-6.07,5.9-6.07,5.95,2.42,5.95,6.05-2.4,6.07-5.98,6.07Zm.02-9.79c-1.87,0-3.14,1.49-3.14,3.74s1.27,3.72,3.14,3.72,3.17-1.49,3.17-3.72-1.27-3.74-3.17-3.74Z"/>
      <path class="cls-6" d="M865.92,100.78h8.83v1.44h-7.3v5.59h6.05v1.42h-6.05v6.55h-1.54v-15Z"/>
      <path class="cls-6" d="M878.71,115.79h-1.49v-10.99l1.49-.31v2.35c.72-1.42,1.8-2.35,3.24-2.35,.72,0,1.42,.22,1.92,.5l-.38,1.39c-.48-.29-1.06-.48-1.68-.48-1.15,0-2.23,.86-3.1,2.83v7.06Z"/>
      <path class="cls-6" d="M886.32,110.46c.05,2.47,1.54,4.25,3.84,4.25,1.2,0,2.35-.36,3.19-.91l.29,1.37c-.94,.58-2.16,.94-3.53,.94-3.17,0-5.3-2.38-5.3-5.71s2.21-5.9,5.18-5.9c2.42,0,4.01,1.58,4.01,4.06,0,.58-.1,1.27-.24,1.75l-7.44,.05v.12Zm6.19-1.32c.02-.12,.02-.36,.02-.48,0-1.68-.91-2.83-2.64-2.83-1.97,0-3.24,1.51-3.48,3.34l6.1-.02Z"/>
      <path class="cls-6" d="M904.06,115.79v-7.1c0-1.92-.77-2.78-2.42-2.78-1.2,0-2.42,.65-3.34,1.56v8.33h-1.49v-10.99l1.49-.31v1.8c1.15-1.15,2.59-1.8,3.75-1.8,2.21,0,3.5,1.37,3.5,3.77v7.54h-1.49Z"/>
      <path class="cls-6" d="M913.58,116.1c-3.31,0-5.38-2.38-5.38-5.78s2.28-5.83,5.4-5.83c1.34,0,2.5,.34,3.43,.94l-.38,1.34c-.84-.55-1.9-.89-3.05-.89-2.38,0-3.86,1.78-3.86,4.39s1.56,4.44,3.89,4.44c1.1,0,2.21-.36,3.05-.91l.31,1.37c-.94,.58-2.14,.94-3.41,.94Z"/>
      <path class="cls-6" d="M927,115.79v-7.1c0-1.92-.77-2.78-2.35-2.78-1.27,0-2.5,.65-3.41,1.56v8.33h-1.49v-16.18l1.49-.31v6.94c1.15-1.15,2.59-1.75,3.82-1.75,2.14,0,3.43,1.37,3.43,3.77v7.54h-1.49Z"/>
      <path class="cls-6" d="M950.52,102.68l-4.92,13.01h-1.68l-4.97-13.03-.26,13.13h-1.51l.5-15h2.06l5.06,13.25,4.99-13.25h2.04l.48,15h-1.56l-.24-13.1Z"/>
      <path class="cls-6" d="M961.37,114.47c-.74,.91-1.92,1.63-3.22,1.63-2.02,0-3.48-1.3-3.48-3.05,0-1.99,1.56-3.62,6.67-3.91v-.65c0-1.73-.77-2.62-2.59-2.62-1.2,0-2.66,.62-3.6,1.32l-.34-1.39c.98-.7,2.64-1.32,4.08-1.32,2.54,0,3.96,1.15,3.94,3.94v5.28c0,.79,.14,1.13,1.1,1.1l-.1,1.22c-1.44,.1-2.23-.48-2.4-1.56h-.07Zm-.02-4.32c-3.77,.43-5.11,1.27-5.11,2.74,0,1.18,.96,1.92,2.26,1.92,1.18,0,2.18-.67,2.86-1.44v-3.22Z"/>
      <path class="cls-6" d="M973.39,115.79v-7.1c0-1.92-.77-2.78-2.42-2.78-1.2,0-2.42,.65-3.34,1.56v8.33h-1.49v-10.99l1.49-.31v1.8c1.15-1.15,2.59-1.8,3.75-1.8,2.21,0,3.5,1.37,3.5,3.77v7.54h-1.49Z"/>
      <path class="cls-6" d="M985.65,99.61l1.49-.31v16.49h-1.49v-1.03c-.72,.67-1.82,1.34-3.19,1.34-2.95,0-4.92-2.38-4.92-5.71s2.28-5.83,5.45-5.83c.94,0,1.94,.26,2.66,.6v-5.54Zm-2.74,6.29c-2.35,0-3.84,1.87-3.84,4.46s1.42,4.37,3.65,4.37c1.13,0,2.16-.5,2.93-1.22,0,.05,0-6.77,0-6.77-.67-.53-1.68-.84-2.74-.84Z"/>
      <path class="cls-6" d="M996.36,114.47c-.74,.91-1.92,1.63-3.22,1.63-2.02,0-3.48-1.3-3.48-3.05,0-1.99,1.56-3.62,6.67-3.91v-.65c0-1.73-.77-2.62-2.59-2.62-1.2,0-2.66,.62-3.6,1.32l-.34-1.39c.98-.7,2.64-1.32,4.08-1.32,2.54,0,3.96,1.15,3.94,3.94v5.28c0,.79,.14,1.13,1.1,1.1l-.1,1.22c-1.44,.1-2.23-.48-2.4-1.56h-.07Zm-.02-4.32c-3.77,.43-5.11,1.27-5.11,2.74,0,1.18,.96,1.92,2.26,1.92,1.18,0,2.18-.67,2.86-1.44v-3.22Z"/>
      <path class="cls-6" d="M1004.16,116.15c-2.09,0-3.02-1.15-2.95-3.46l.17-6.5-1.68-.1,.07-.94,1.66-.38,.07-2.5h1.42l-.07,2.57h3.67l-.07,1.32h-3.65l-.17,6.58c-.05,1.39,.46,2.06,1.61,2.06,.72,0,1.44-.24,2.11-.53l.26,1.3c-.77,.36-1.66,.58-2.45,.58Z"/>
      <path class="cls-6" d="M1009.7,110.46c.05,2.47,1.54,4.25,3.84,4.25,1.2,0,2.35-.36,3.19-.91l.29,1.37c-.94,.58-2.16,.94-3.53,.94-3.17,0-5.3-2.38-5.3-5.71s2.21-5.9,5.18-5.9c2.42,0,4.01,1.58,4.01,4.06,0,.58-.1,1.27-.24,1.75l-7.44,.05v.12Zm6.19-1.32c.02-.12,.02-.36,.02-.48,0-1.68-.91-2.83-2.64-2.83-1.97,0-3.24,1.51-3.48,3.34l6.1-.02Z"/>
      <path class="cls-6" d="M1036.13,111.61c0,2.45-1.61,4.18-5.4,4.18h-4.87v-15h4.68c3.6,0,5.11,1.63,5.11,3.91,0,1.46-.89,2.9-2.88,3.41,2.21,.43,3.36,1.75,3.36,3.5Zm-5.52-9.43h-3.22v5.4h2.98c2.26,0,3.74-.98,3.74-2.76,0-1.61-1.13-2.64-3.5-2.64Zm-.14,6.79h-3.07v5.42h3.46c2.64,0,3.75-1.08,3.75-2.78s-1.46-2.64-4.13-2.64Z"/>
      <path class="cls-6" d="M1039.65,110.46c.05,2.47,1.54,4.25,3.84,4.25,1.2,0,2.35-.36,3.19-.91l.29,1.37c-.94,.58-2.16,.94-3.53,.94-3.17,0-5.3-2.38-5.3-5.71s2.21-5.9,5.18-5.9c2.42,0,4.01,1.58,4.01,4.06,0,.58-.1,1.27-.24,1.75l-7.44,.05v.12Zm6.19-1.32c.02-.12,.02-.36,.02-.48,0-1.68-.91-2.83-2.64-2.83-1.97,0-3.24,1.51-3.48,3.34l6.1-.02Z"/>
      <path class="cls-6" d="M1049.49,114.06c0-.91,.79-1.7,1.8-2.09-1.06-.65-1.78-1.85-1.78-3.36,0-2.33,1.73-4.13,4.32-4.13,1.15,0,1.99,.31,2.59,.65l3.05-.24,.07,1.49-2.42-.24c.53,.53,.89,1.58,.89,2.47,0,2.33-1.82,4.03-4.27,4.03-.6,0-1.08-.12-1.63-.31-.58,.24-1.22,.7-1.22,1.32,0,.7,.53,1.13,2.5,1.13,0,0,1.58,0,1.42,0,3.19,0,4.56,1.08,4.56,2.88,0,2.42-2.71,4.08-5.79,4.08s-4.97-1.3-4.97-3.22c0-1.25,.96-2.35,2.38-2.71-.94-.34-1.49-.96-1.49-1.75Zm.55,4.2c0,1.3,1.42,2.26,3.75,2.26s4.13-1.1,4.13-2.59c0-1.3-1.15-1.75-3.34-1.75-.74,0-1.68-.02-2.3-.07-1.32,.36-2.23,1.22-2.23,2.16Zm3.77-6.82c1.68,0,2.74-1.2,2.74-2.88s-.96-2.86-2.81-2.86c-1.7,0-2.76,1.22-2.76,2.93,0,1.58,1.06,2.81,2.83,2.81Z"/>
      <path class="cls-6" d="M1062.14,102.27c-.67,0-1.01-.53-1.01-1.1s.34-1.06,1.01-1.06,1.01,.5,1.01,1.06-.34,1.1-1.01,1.1Zm-.74,13.51v-10.99l1.49-.31v11.31h-1.49Z"/>
      <path class="cls-6" d="M1073.64,115.79v-7.1c0-1.92-.77-2.78-2.42-2.78-1.2,0-2.42,.65-3.34,1.56v8.33h-1.49v-10.99l1.49-.31v1.8c1.15-1.15,2.59-1.8,3.75-1.8,2.21,0,3.5,1.37,3.5,3.77v7.54h-1.49Z"/>
      <path class="cls-6" d="M1081.17,116.1c-1.3,0-2.66-.38-3.6-.98l.41-1.37c.94,.62,2.11,1.01,3.24,1.01,1.32,0,2.47-.65,2.47-1.85,0-1.32-1.39-1.7-2.76-2.14-1.51-.46-3.19-1.2-3.19-3.12s1.66-3.17,3.72-3.17c1.2,0,2.4,.34,3.34,.82l-.43,1.34c-.91-.5-2.04-.82-3-.82-1.34,0-2.21,.62-2.21,1.68,0,1.25,1.3,1.63,2.71,2.06,1.56,.46,3.24,1.18,3.24,3.22s-1.73,3.31-3.94,3.31Z"/>
    </g>
    <g>
      <path class="cls-6" d="M2449.06,146.99v-2.14c3.55-2.45,6.12-3.96,6.12-5.54,0-.96-.74-1.63-2.06-1.63-1.13,0-2.26,.5-3.43,1.32l-.77-2.21c1.22-.91,2.93-1.56,4.75-1.56,2.76,0,4.51,1.46,4.51,3.62,0,2.3-2.02,3.77-5.14,5.71h5.67l.02,2.42h-9.67Z"/>
      <path class="cls-6" d="M2466.34,147.35c-3.55,0-5.88-2.42-5.88-6.05s2.38-6.07,5.9-6.07,5.95,2.42,5.95,6.05-2.4,6.07-5.98,6.07Zm.02-9.79c-1.87,0-3.14,1.49-3.14,3.74s1.27,3.72,3.14,3.72,3.17-1.49,3.17-3.72-1.27-3.74-3.17-3.74Z"/>
      <path class="cls-6" d="M2476.8,138.35l-2.78,.77-.07-2.42,5.66-1.49v11.79h-2.81v-8.64Z"/>
      <path class="cls-6" d="M2485.03,151.26l-.74-2.42c3.36-.72,5.9-2.38,6.6-5.02l-.07-.05c-.84,.84-2.06,1.46-3.67,1.46-2.52,0-4.51-1.75-4.51-4.63,0-3.02,2.09-5.38,5.57-5.38s5.67,2.86,5.67,6.58c0,4.37-3.1,8.4-8.83,9.46Zm3.07-13.73c-1.58,0-2.59,1.13-2.59,2.81s1.03,2.66,2.54,2.66c1.13,0,2.18-.55,2.74-1.06,.07-.29,.1-.7,.1-1.06,0-1.78-1.03-3.36-2.78-3.36Z"/>
      <path class="cls-6" d="M2451.89,166.04l-2.78,1.06-.07-1.37,4.32-1.58v11.64h-1.46v-9.74Z"/>
      <path class="cls-6" d="M2456.26,165.9l.07-1.46h9.48v1.2l-6.79,14.57h-1.51l6.7-14.31h-7.95Z"/>
      <path class="cls-6" d="M2480.33,176.1c-4.18,0-7.37-3.14-7.37-7.78s3.1-7.85,7.39-7.85,7.37,3.12,7.37,7.75-3.1,7.87-7.39,7.87Zm-.02-14.26c-3.36,0-5.78,2.59-5.78,6.38s2.47,6.5,5.88,6.5,5.76-2.62,5.76-6.41-2.45-6.48-5.86-6.48Z"/>
      <path class="cls-6" d="M2495.23,176.1c-3.31,0-5.38-2.38-5.38-5.78s2.28-5.83,5.4-5.83c1.34,0,2.5,.34,3.43,.94l-.38,1.34c-.84-.55-1.9-.89-3.05-.89-2.38,0-3.86,1.78-3.86,4.39s1.56,4.44,3.89,4.44c1.1,0,2.21-.36,3.05-.91l.31,1.37c-.94,.58-2.14,.94-3.41,.94Z"/>
      <path class="cls-6" d="M2504.42,176.15c-2.09,0-3.02-1.15-2.95-3.46l.17-6.5-1.68-.1,.07-.94,1.66-.38,.07-2.5h1.42l-.07,2.57h3.67l-.07,1.32h-3.65l-.17,6.58c-.05,1.39,.46,2.06,1.61,2.06,.72,0,1.44-.24,2.11-.53l.26,1.3c-.77,.36-1.66,.58-2.45,.58Z"/>
      <path class="cls-6" d="M2513.76,176.1c-3.05,0-5.3-2.26-5.3-5.78s2.35-5.83,5.42-5.83,5.28,2.26,5.28,5.78-2.35,5.83-5.4,5.83Zm.05-10.27c-2.33,0-3.86,1.85-3.86,4.44s1.56,4.49,3.89,4.49,3.86-1.85,3.86-4.44-1.56-4.49-3.89-4.49Z"/>
      <path class="cls-6" d="M2526.1,176.1c-.89,0-1.97-.26-2.69-.6l-1.49,.65v-16.54l1.49-.31v6.65c.74-.7,1.9-1.39,3.31-1.39,2.9,0,4.8,2.3,4.8,5.59,0,3.46-2.26,5.95-5.42,5.95Zm.34-10.18c-1.2,0-2.23,.5-3.02,1.22,0-.07,0,6.74,0,6.74,.67,.53,1.71,.86,2.76,.86,2.35,0,3.82-1.9,3.82-4.54,0-2.5-1.37-4.3-3.55-4.3Z"/>
      <path class="cls-6" d="M2534.98,170.46c.05,2.47,1.54,4.25,3.84,4.25,1.2,0,2.35-.36,3.19-.91l.29,1.37c-.94,.58-2.16,.94-3.53,.94-3.17,0-5.3-2.38-5.3-5.71s2.21-5.9,5.18-5.9c2.42,0,4.01,1.58,4.01,4.06,0,.58-.1,1.27-.24,1.75l-7.44,.05v.12Zm6.19-1.32c.02-.12,.02-.36,.02-.48,0-1.68-.91-2.83-2.64-2.83-1.97,0-3.24,1.51-3.48,3.34l6.1-.02Z"/>
      <path class="cls-6" d="M2546.95,175.79h-1.49v-10.99l1.49-.31v2.35c.72-1.42,1.8-2.35,3.24-2.35,.72,0,1.42,.22,1.92,.5l-.38,1.39c-.48-.29-1.06-.48-1.68-.48-1.15,0-2.23,.86-3.1,2.83v7.06Z"/>
      <path class="cls-6" d="M2561.21,175.79h-1.54v-15h4.03c3.7,0,5.45,1.7,5.45,4.32,0,2.26-1.54,3.62-3.48,4.22l4.15,6.46h-1.78l-3.84-6.19-3,.19v6Zm2.69-7.46c1.99-.07,3.72-1.18,3.72-3.14s-1.46-3-4.08-3h-2.33v6.24l2.69-.1Z"/>
      <path class="cls-6" d="M2572.73,170.46c.05,2.47,1.54,4.25,3.84,4.25,1.2,0,2.35-.36,3.19-.91l.29,1.37c-.94,.58-2.16,.94-3.53,.94-3.17,0-5.3-2.38-5.3-5.71s2.21-5.9,5.18-5.9c2.42,0,4.01,1.58,4.01,4.06,0,.58-.1,1.27-.24,1.75l-7.44,.05v.12Zm6.19-1.32c.02-.12,.02-.36,.02-.48,0-1.68-.91-2.83-2.64-2.83-1.97,0-3.24,1.51-3.48,3.34l6.1-.02Z"/>
      <path class="cls-6" d="M2587.37,175.81h-1.34l-4.34-11.02h1.61l3.48,9.07,3.36-9.07h1.56l-4.32,11.02Z"/>
      <path class="cls-6" d="M2597.97,176.1c-3.05,0-5.3-2.26-5.3-5.78s2.35-5.83,5.42-5.83,5.28,2.26,5.28,5.78-2.35,5.83-5.4,5.83Zm.05-10.27c-2.33,0-3.86,1.85-3.86,4.44s1.56,4.49,3.89,4.49,3.86-1.85,3.86-4.44-1.56-4.49-3.89-4.49Z"/>
      <path class="cls-6" d="M2606.13,175.79v-16.18l1.49-.31v16.49h-1.49Z"/>
      <path class="cls-6" d="M2612.47,164.79v7.1c0,1.92,.77,2.78,2.38,2.78,1.27,0,2.5-.65,3.38-1.56v-8.33h1.49v10.99l-1.49,.31v-1.78c-1.13,1.15-2.57,1.78-3.79,1.78-2.14,0-3.46-1.37-3.46-3.77v-7.54h1.49Z"/>
      <path class="cls-6" d="M2626.2,176.15c-2.09,0-3.02-1.15-2.95-3.46l.17-6.5-1.68-.1,.07-.94,1.66-.38,.07-2.5h1.42l-.07,2.57h3.67l-.07,1.32h-3.65l-.17,6.58c-.05,1.39,.46,2.06,1.61,2.06,.72,0,1.44-.24,2.11-.53l.26,1.3c-.77,.36-1.66,.58-2.45,.58Z"/>
      <path class="cls-6" d="M2631.84,162.27c-.67,0-1.01-.53-1.01-1.1s.34-1.06,1.01-1.06,1.01,.5,1.01,1.06-.34,1.1-1.01,1.1Zm-.74,13.51v-10.99l1.49-.31v11.31h-1.49Z"/>
      <path class="cls-6" d="M2640.67,176.1c-3.05,0-5.3-2.26-5.3-5.78s2.35-5.83,5.42-5.83,5.28,2.26,5.28,5.78-2.35,5.83-5.4,5.83Zm.05-10.27c-2.33,0-3.86,1.85-3.86,4.44s1.56,4.49,3.89,4.49,3.86-1.85,3.86-4.44-1.56-4.49-3.89-4.49Z"/>
      <path class="cls-6" d="M2656.08,175.79v-7.1c0-1.92-.77-2.78-2.42-2.78-1.2,0-2.42,.65-3.34,1.56v8.33h-1.49v-10.99l1.49-.31v1.8c1.15-1.15,2.59-1.8,3.75-1.8,2.21,0,3.5,1.37,3.5,3.77v7.54h-1.49Z"/>
    </g>
    <g>
      <path class="cls-6" d="M2225.06,146.99v-2.14c3.55-2.45,6.12-3.96,6.12-5.54,0-.96-.74-1.63-2.06-1.63-1.13,0-2.26,.5-3.43,1.32l-.77-2.21c1.22-.91,2.93-1.56,4.75-1.56,2.76,0,4.51,1.46,4.51,3.62,0,2.3-2.02,3.77-5.14,5.71h5.67l.02,2.42h-9.67Z"/>
      <path class="cls-6" d="M2242.34,147.35c-3.55,0-5.88-2.42-5.88-6.05s2.38-6.07,5.9-6.07,5.95,2.42,5.95,6.05-2.4,6.07-5.98,6.07Zm.02-9.79c-1.87,0-3.14,1.49-3.14,3.74s1.27,3.72,3.14,3.72,3.17-1.49,3.17-3.72-1.27-3.74-3.17-3.74Z"/>
      <path class="cls-6" d="M2256.14,147.35c-3.55,0-5.88-2.42-5.88-6.05s2.38-6.07,5.9-6.07,5.95,2.42,5.95,6.05-2.4,6.07-5.98,6.07Zm.02-9.79c-1.87,0-3.14,1.49-3.14,3.74s1.27,3.72,3.14,3.72,3.17-1.49,3.17-3.72-1.27-3.74-3.17-3.74Z"/>
      <path class="cls-6" d="M2268.35,141.56c3.34,0,5.28,1.92,5.28,4.58,0,3.14-2.38,5.33-5.74,5.33-1.51,0-3.22-.38-4.34-.96l.36-2.52c.98,.5,2.59,1.06,3.94,1.06,1.78,0,3-1.03,3-2.71,0-1.39-1.06-2.57-3.24-2.57-1.3,0-2.16,.17-2.98,.43l-.53-.53,1.01-8.11h8.14l.07,2.47h-5.9l-.48,3.62c.38-.02,.74-.1,1.42-.1Z"/>
      <path class="cls-6" d="M2233.29,171.9c0-1.75-1.44-2.45-3.79-3.14-2.11-.62-4.37-1.54-4.37-4.2,0-2.38,2.02-4.08,4.8-4.08,1.73,0,3.24,.48,4.51,1.3l-.55,1.34c-1.13-.77-2.59-1.25-3.94-1.25-2.26,0-3.34,1.2-3.34,2.57,0,1.66,1.49,2.28,3.79,3,2.16,.65,4.34,1.63,4.34,4.34,0,2.47-2.06,4.32-5.06,4.32-1.8,0-3.46-.53-4.82-1.39l.55-1.37c1.2,.82,2.62,1.39,4.32,1.39,2.09,0,3.55-1.25,3.55-2.83Z"/>
      <path class="cls-6" d="M2241.57,175.67l-.89,2.38c-1.01,2.69-2.06,3.46-3.55,3.46-.84,0-1.46-.22-2.14-.5l.46-1.37c.53,.29,1.08,.48,1.68,.48,.84,0,1.46-.46,2.26-2.54l.74-1.94-4.3-10.83h1.61l3.46,9.07,3.38-9.07h1.56l-4.27,10.87Z"/>
      <path class="cls-6" d="M2249.15,175.79h-1.49v-10.99l1.49-.31v2.35c.72-1.42,1.8-2.35,3.24-2.35,.72,0,1.42,.22,1.92,.5l-.38,1.39c-.48-.29-1.06-.48-1.68-.48-1.15,0-2.23,.86-3.1,2.83v7.06Z"/>
      <path class="cls-6" d="M2256.98,162.27c-.67,0-1.01-.53-1.01-1.1s.34-1.06,1.01-1.06,1.01,.5,1.01,1.06-.34,1.1-1.01,1.1Zm-.74,13.51v-10.99l1.49-.31v11.31h-1.49Z"/>
      <path class="cls-6" d="M2266.98,174.47c-.74,.91-1.92,1.63-3.22,1.63-2.02,0-3.48-1.3-3.48-3.05,0-1.99,1.56-3.62,6.67-3.91v-.65c0-1.73-.77-2.62-2.59-2.62-1.2,0-2.66,.62-3.6,1.32l-.34-1.39c.98-.7,2.64-1.32,4.08-1.32,2.54,0,3.96,1.15,3.94,3.94v5.28c0,.79,.14,1.13,1.1,1.1l-.1,1.22c-1.44,.1-2.23-.48-2.4-1.56h-.07Zm-.02-4.32c-3.77,.43-5.11,1.27-5.11,2.74,0,1.18,.96,1.92,2.26,1.92,1.18,0,2.18-.67,2.86-1.44v-3.22Z"/>
      <path class="cls-6" d="M2279.01,175.79v-7.1c0-1.92-.77-2.78-2.42-2.78-1.2,0-2.42,.65-3.34,1.56v8.33h-1.49v-10.99l1.49-.31v1.8c1.15-1.15,2.59-1.8,3.75-1.8,2.21,0,3.5,1.37,3.5,3.77v7.54h-1.49Z"/>
      <path class="cls-6" d="M2296.12,176.1c-4.18,0-7.37-3.14-7.37-7.78s3.1-7.85,7.39-7.85,7.37,3.12,7.37,7.75-3.1,7.87-7.39,7.87Zm-.02-14.26c-3.36,0-5.78,2.59-5.78,6.38s2.47,6.5,5.88,6.5,5.76-2.62,5.76-6.41-2.45-6.48-5.86-6.48Z"/>
      <path class="cls-6" d="M2311.02,176.1c-3.31,0-5.38-2.38-5.38-5.78s2.28-5.83,5.4-5.83c1.34,0,2.5,.34,3.43,.94l-.38,1.34c-.84-.55-1.9-.89-3.05-.89-2.38,0-3.86,1.78-3.86,4.39s1.56,4.44,3.89,4.44c1.1,0,2.21-.36,3.05-.91l.31,1.37c-.94,.58-2.14,.94-3.41,.94Z"/>
      <path class="cls-6" d="M2321.73,176.1c-3.31,0-5.38-2.38-5.38-5.78s2.28-5.83,5.4-5.83c1.34,0,2.5,.34,3.43,.94l-.38,1.34c-.84-.55-1.9-.89-3.05-.89-2.38,0-3.86,1.78-3.86,4.39s1.56,4.44,3.89,4.44c1.1,0,2.21-.36,3.05-.91l.31,1.37c-.94,.58-2.14,.94-3.41,.94Z"/>
      <path class="cls-6" d="M2329.29,164.79v7.1c0,1.92,.77,2.78,2.38,2.78,1.27,0,2.5-.65,3.38-1.56v-8.33h1.49v10.99l-1.49,.31v-1.78c-1.13,1.15-2.57,1.78-3.79,1.78-2.14,0-3.46-1.37-3.46-3.77v-7.54h1.49Z"/>
      <path class="cls-6" d="M2344.67,164.55c2.98,0,4.92,2.35,4.92,5.69s-2.26,5.86-5.42,5.86c-.86,0-1.97-.24-2.69-.58v5.86h-1.49v-16.63l1.49-.31v1.46c.74-.7,1.85-1.34,3.19-1.34Zm-3.19,9.34c.67,.53,1.71,.86,2.76,.86,2.35,0,3.82-1.9,3.82-4.49s-1.39-4.34-3.62-4.34c-1.13,0-2.16,.5-2.95,1.22,0-.07,0,6.74,0,6.74Z"/>
      <path class="cls-6" d="M2358.11,174.47c-.74,.91-1.92,1.63-3.22,1.63-2.02,0-3.48-1.3-3.48-3.05,0-1.99,1.56-3.62,6.67-3.91v-.65c0-1.73-.77-2.62-2.59-2.62-1.2,0-2.66,.62-3.6,1.32l-.34-1.39c.98-.7,2.64-1.32,4.08-1.32,2.54,0,3.96,1.15,3.94,3.94v5.28c0,.79,.14,1.13,1.1,1.1l-.1,1.22c-1.44,.1-2.23-.48-2.4-1.56h-.07Zm-.02-4.32c-3.77,.43-5.11,1.27-5.11,2.74,0,1.18,.96,1.92,2.26,1.92,1.18,0,2.18-.67,2.86-1.44v-3.22Z"/>
      <path class="cls-6" d="M2365.91,176.15c-2.09,0-3.02-1.15-2.95-3.46l.17-6.5-1.68-.1,.07-.94,1.66-.38,.07-2.5h1.42l-.07,2.57h3.67l-.07,1.32h-3.65l-.17,6.58c-.05,1.39,.46,2.06,1.61,2.06,.72,0,1.44-.24,2.11-.53l.26,1.3c-.77,.36-1.66,.58-2.45,.58Z"/>
      <path class="cls-6" d="M2371.55,162.27c-.67,0-1.01-.53-1.01-1.1s.34-1.06,1.01-1.06,1.01,.5,1.01,1.06-.34,1.1-1.01,1.1Zm-.74,13.51v-10.99l1.49-.31v11.31h-1.49Z"/>
      <path class="cls-6" d="M2380.38,176.1c-3.05,0-5.3-2.26-5.3-5.78s2.35-5.83,5.42-5.83,5.28,2.26,5.28,5.78-2.35,5.83-5.4,5.83Zm.05-10.27c-2.33,0-3.86,1.85-3.86,4.44s1.56,4.49,3.89,4.49,3.86-1.85,3.86-4.44-1.56-4.49-3.89-4.49Z"/>
      <path class="cls-6" d="M2395.79,175.79v-7.1c0-1.92-.77-2.78-2.42-2.78-1.2,0-2.42,.65-3.34,1.56v8.33h-1.49v-10.99l1.49-.31v1.8c1.15-1.15,2.59-1.8,3.75-1.8,2.21,0,3.5,1.37,3.5,3.77v7.54h-1.49Z"/>
      <path class="cls-6" d="M2225.92,204.59v-15h9.07v1.42h-7.54v5.38h6.29v1.39h-6.29v5.4h7.54v1.42h-9.07Z"/>
      <path class="cls-6" d="M2245.14,204.59v-7.1c0-1.92-.77-2.78-2.42-2.78-1.2,0-2.42,.65-3.34,1.56v8.33h-1.49v-10.99l1.49-.31v1.8c1.15-1.15,2.59-1.8,3.75-1.8,2.21,0,3.5,1.37,3.5,3.77v7.54h-1.49Z"/>
      <path class="cls-6" d="M2257.41,188.41l1.49-.31v16.49h-1.49v-1.03c-.72,.67-1.82,1.34-3.19,1.34-2.95,0-4.92-2.38-4.92-5.71s2.28-5.83,5.45-5.83c.94,0,1.94,.26,2.66,.6v-5.54Zm-2.74,6.29c-2.35,0-3.84,1.87-3.84,4.46s1.42,4.37,3.65,4.37c1.13,0,2.16-.5,2.93-1.22,0,.05,0-6.77,0-6.77-.67-.53-1.68-.84-2.74-.84Z"/>
      <path class="cls-6" d="M2265.02,204.9c-1.3,0-2.66-.38-3.6-.98l.41-1.37c.94,.62,2.11,1.01,3.24,1.01,1.32,0,2.47-.65,2.47-1.85,0-1.32-1.39-1.7-2.76-2.14-1.51-.46-3.19-1.2-3.19-3.12s1.66-3.17,3.72-3.17c1.2,0,2.4,.34,3.34,.82l-.43,1.34c-.91-.5-2.04-.82-3-.82-1.34,0-2.21,.62-2.21,1.68,0,1.25,1.3,1.63,2.71,2.06,1.56,.46,3.24,1.18,3.24,3.22s-1.73,3.31-3.94,3.31Z"/>
    </g>
    <g>
      <path class="cls-6" d="M3.77,78.35l-2.78,.77-.07-2.42,5.66-1.49v11.79H3.77v-8.64Z"/>
      <path class="cls-6" d="M14.04,81.56c3.34,0,5.28,1.92,5.28,4.58,0,3.14-2.38,5.33-5.74,5.33-1.51,0-3.22-.38-4.34-.96l.36-2.52c.98,.5,2.59,1.06,3.94,1.06,1.78,0,3-1.03,3-2.71,0-1.39-1.06-2.57-3.24-2.57-1.3,0-2.16,.17-2.98,.43l-.53-.53,1.01-8.11h8.14l.07,2.47h-5.9l-.48,3.62c.38-.02,.74-.1,1.42-.1Z"/>
      <path class="cls-6" d="M23.57,78.35l-2.78,.77-.07-2.42,5.66-1.49v11.79h-2.81v-8.64Z"/>
      <path class="cls-6" d="M31.8,91.26l-.74-2.42c3.36-.72,5.9-2.38,6.6-5.02l-.07-.05c-.84,.84-2.06,1.46-3.67,1.46-2.52,0-4.51-1.75-4.51-4.63,0-3.02,2.09-5.38,5.57-5.38s5.67,2.86,5.67,6.58c0,4.37-3.1,8.4-8.83,9.46Zm3.07-13.73c-1.58,0-2.59,1.13-2.59,2.81s1.03,2.66,2.54,2.66c1.13,0,2.18-.55,2.74-1.06,.07-.29,.1-.7,.1-1.06,0-1.78-1.03-3.36-2.78-3.36Z"/>
    </g>
    <g>
      <path class="cls-6" d="M803.77,138.35l-2.78,.77-.07-2.42,5.66-1.49v11.79h-2.81v-8.64Z"/>
      <path class="cls-6" d="M812,151.26l-.74-2.42c3.36-.72,5.9-2.38,6.6-5.02l-.07-.05c-.84,.84-2.06,1.46-3.67,1.46-2.52,0-4.51-1.75-4.51-4.63,0-3.02,2.09-5.38,5.57-5.38s5.67,2.86,5.67,6.58c0,4.37-3.1,8.4-8.83,9.46Zm3.07-13.73c-1.58,0-2.59,1.13-2.59,2.81s1.03,2.66,2.54,2.66c1.13,0,2.18-.55,2.74-1.06,.07-.29,.1-.7,.1-1.06,0-1.78-1.03-3.36-2.78-3.36Z"/>
      <path class="cls-6" d="M825.56,138.35l-2.78,.77-.07-2.42,5.66-1.49v11.79h-2.81v-8.64Z"/>
      <path class="cls-6" d="M840.34,131.29l.74,2.45c-3.36,.7-5.93,2.38-6.67,5.02l.07,.05c.89-.86,2.09-1.49,3.79-1.49,2.5,0,4.46,1.8,4.46,4.7s-2.09,5.33-5.57,5.33-5.67-2.88-5.67-6.58c0-4.37,3.12-8.42,8.83-9.48Zm-3.07,13.75c1.58,0,2.59-1.13,2.59-2.81s-1.03-2.66-2.54-2.66c-1.13,0-2.18,.55-2.74,1.03-.07,.31-.1,.72-.1,1.08,0,1.78,1.03,3.36,2.78,3.36Z"/>
      <path class="cls-6" d="M809.29,171.9c0-1.75-1.44-2.45-3.79-3.14-2.11-.62-4.37-1.54-4.37-4.2,0-2.38,2.02-4.08,4.8-4.08,1.73,0,3.24,.48,4.51,1.3l-.55,1.34c-1.13-.77-2.59-1.25-3.94-1.25-2.26,0-3.34,1.2-3.34,2.57,0,1.66,1.49,2.28,3.79,3,2.16,.65,4.34,1.63,4.34,4.34,0,2.47-2.06,4.32-5.06,4.32-1.8,0-3.46-.53-4.82-1.39l.55-1.37c1.2,.82,2.62,1.39,4.32,1.39,2.09,0,3.55-1.25,3.55-2.83Z"/>
      <path class="cls-6" d="M817.57,175.67l-.89,2.38c-1.01,2.69-2.06,3.46-3.55,3.46-.84,0-1.46-.22-2.14-.5l.46-1.37c.53,.29,1.08,.48,1.68,.48,.84,0,1.46-.46,2.26-2.54l.74-1.94-4.3-10.83h1.61l3.46,9.07,3.38-9.07h1.56l-4.27,10.87Z"/>
      <path class="cls-6" d="M825.15,170.31v5.47h-1.49v-16.18l1.49-.31v10.56h.05l4.94-5.06h1.87l-5.28,5.23,5.3,5.76h-1.9l-4.94-5.47h-.05Z"/>
      <path class="cls-6" d="M834.63,170.46c.05,2.47,1.54,4.25,3.84,4.25,1.2,0,2.35-.36,3.19-.91l.29,1.37c-.94,.58-2.16,.94-3.53,.94-3.17,0-5.3-2.38-5.3-5.71s2.21-5.9,5.18-5.9c2.42,0,4.01,1.58,4.01,4.06,0,.58-.1,1.27-.24,1.75l-7.44,.05v.12Zm6.19-1.32c.02-.12,.02-.36,.02-.48,0-1.68-.91-2.83-2.64-2.83-1.97,0-3.24,1.51-3.48,3.34l6.1-.02Z"/>
      <path class="cls-6" d="M847.78,176.1c-1.3,0-2.66-.38-3.6-.98l.41-1.37c.94,.62,2.11,1.01,3.24,1.01,1.32,0,2.47-.65,2.47-1.85,0-1.32-1.39-1.7-2.76-2.14-1.51-.46-3.19-1.2-3.19-3.12s1.66-3.17,3.72-3.17c1.2,0,2.4,.34,3.34,.82l-.43,1.34c-.91-.5-2.04-.82-3-.82-1.34,0-2.21,.62-2.21,1.68,0,1.25,1.3,1.63,2.71,2.06,1.56,.46,3.24,1.18,3.24,3.22s-1.73,3.31-3.94,3.31Z"/>
      <path class="cls-6" d="M853.42,170.63l.07-1.18h9.07l.07,1.18h-9.22Z"/>
      <path class="cls-6" d="M868.86,170.48l-2.04,.02v5.28h-1.54v-15h3.77c3.96,0,5.86,1.92,5.86,4.68,0,3.29-2.33,4.97-6.05,5.02Zm.14-8.28h-2.18v6.89l2.14-.05c2.83-.05,4.37-1.18,4.37-3.5,0-2.14-1.51-3.34-4.32-3.34Z"/>
      <path class="cls-6" d="M878.31,162.27c-.67,0-1.01-.53-1.01-1.1s.34-1.06,1.01-1.06,1.01,.5,1.01,1.06-.34,1.1-1.01,1.1Zm-.74,13.51v-10.99l1.49-.31v11.31h-1.49Z"/>
      <path class="cls-6" d="M887.22,176.1c-3.31,0-5.38-2.38-5.38-5.78s2.28-5.83,5.4-5.83c1.34,0,2.5,.34,3.43,.94l-.38,1.34c-.84-.55-1.9-.89-3.05-.89-2.38,0-3.86,1.78-3.86,4.39s1.56,4.44,3.89,4.44c1.1,0,2.21-.36,3.05-.91l.31,1.37c-.94,.58-2.14,.94-3.41,.94Z"/>
      <path class="cls-6" d="M897.85,176.1c-3.05,0-5.3-2.26-5.3-5.78s2.35-5.83,5.42-5.83,5.28,2.26,5.28,5.78-2.35,5.83-5.4,5.83Zm.05-10.27c-2.33,0-3.86,1.85-3.86,4.44s1.56,4.49,3.89,4.49,3.86-1.85,3.86-4.44-1.56-4.49-3.89-4.49Z"/>
      <path class="cls-6" d="M909.03,176.15c-2.09,0-3.02-1.15-2.95-3.46l.17-6.5-1.68-.1,.07-.94,1.66-.38,.07-2.5h1.42l-.07,2.57h3.67l-.07,1.32h-3.65l-.17,6.58c-.05,1.39,.46,2.06,1.61,2.06,.72,0,1.44-.24,2.11-.53l.26,1.3c-.77,.36-1.66,.58-2.45,.58Z"/>
      <path class="cls-6" d="M813.44,204.59h-1.56l-1.58-4.3h-6.79l-1.58,4.3h-1.56l5.69-15h1.8l5.59,15Zm-6.53-13.49l-2.88,7.8h5.74l-2.86-7.8Z"/>
      <path class="cls-6" d="M814.88,202.86c0-.91,.79-1.7,1.8-2.09-1.06-.65-1.78-1.85-1.78-3.36,0-2.33,1.73-4.13,4.32-4.13,1.15,0,1.99,.31,2.59,.65l3.05-.24,.07,1.49-2.42-.24c.53,.53,.89,1.58,.89,2.47,0,2.33-1.82,4.03-4.27,4.03-.6,0-1.08-.12-1.63-.31-.58,.24-1.22,.7-1.22,1.32,0,.7,.53,1.13,2.5,1.13,0,0,1.58,0,1.42,0,3.19,0,4.56,1.08,4.56,2.88,0,2.42-2.71,4.08-5.79,4.08s-4.97-1.3-4.97-3.22c0-1.25,.96-2.35,2.38-2.71-.94-.34-1.49-.96-1.49-1.75Zm.55,4.2c0,1.3,1.42,2.26,3.74,2.26s4.13-1.1,4.13-2.59c0-1.3-1.15-1.75-3.34-1.75-.74,0-1.68-.02-2.3-.07-1.32,.36-2.23,1.22-2.23,2.16Zm3.77-6.82c1.68,0,2.74-1.2,2.74-2.88s-.96-2.86-2.81-2.86c-1.7,0-2.76,1.22-2.76,2.93,0,1.58,1.06,2.81,2.83,2.81Z"/>
      <path class="cls-6" d="M828.25,204.59h-1.49v-10.99l1.49-.31v2.35c.72-1.42,1.8-2.35,3.24-2.35,.72,0,1.42,.22,1.92,.5l-.38,1.39c-.48-.29-1.06-.48-1.68-.48-1.15,0-2.23,.86-3.1,2.83v7.06Z"/>
      <path class="cls-6" d="M835.86,199.26c.05,2.47,1.54,4.25,3.84,4.25,1.2,0,2.35-.36,3.19-.91l.29,1.37c-.94,.58-2.16,.94-3.53,.94-3.17,0-5.3-2.38-5.3-5.71s2.21-5.9,5.18-5.9c2.42,0,4.01,1.58,4.01,4.06,0,.58-.1,1.27-.24,1.75l-7.44,.05v.12Zm6.19-1.32c.02-.12,.02-.36,.02-.48,0-1.68-.91-2.83-2.64-2.83-1.97,0-3.24,1.51-3.48,3.34l6.1-.02Z"/>
      <path class="cls-6" d="M847.14,199.26c.05,2.47,1.54,4.25,3.84,4.25,1.2,0,2.35-.36,3.19-.91l.29,1.37c-.94,.58-2.16,.94-3.53,.94-3.17,0-5.3-2.38-5.3-5.71s2.21-5.9,5.18-5.9c2.42,0,4.01,1.58,4.01,4.06,0,.58-.1,1.27-.24,1.75l-7.44,.05v.12Zm6.19-1.32c.02-.12,.02-.36,.02-.48,0-1.68-.91-2.83-2.64-2.83-1.97,0-3.24,1.51-3.48,3.34l6.1-.02Z"/>
      <path class="cls-6" d="M871.35,204.59v-7.08c0-1.92-.74-2.81-2.33-2.81-1.18,0-2.26,.62-3.1,1.42,.02,.14,.05,.72,.05,.98v7.49h-1.49v-7.08c0-1.92-.74-2.81-2.33-2.81-1.15,0-2.21,.53-3.05,1.27v8.62h-1.49v-10.99l1.49-.31v1.51c1.13-1.03,2.35-1.51,3.48-1.51,1.37,0,2.45,.6,2.98,1.82,1.22-1.22,2.62-1.82,3.89-1.82,2.09,0,3.38,1.37,3.38,3.79v7.51h-1.49Z"/>
      <path class="cls-6" d="M877.01,199.26c.05,2.47,1.54,4.25,3.84,4.25,1.2,0,2.35-.36,3.19-.91l.29,1.37c-.94,.58-2.16,.94-3.53,.94-3.17,0-5.3-2.38-5.3-5.71s2.21-5.9,5.18-5.9c2.42,0,4.01,1.58,4.01,4.06,0,.58-.1,1.27-.24,1.75l-7.44,.05v.12Zm6.19-1.32c.02-.12,.02-.36,.02-.48,0-1.68-.91-2.83-2.64-2.83-1.97,0-3.24,1.51-3.48,3.34l6.1-.02Z"/>
      <path class="cls-6" d="M894.75,204.59v-7.1c0-1.92-.77-2.78-2.42-2.78-1.2,0-2.42,.65-3.34,1.56v8.33h-1.49v-10.99l1.49-.31v1.8c1.15-1.15,2.59-1.8,3.75-1.8,2.21,0,3.5,1.37,3.5,3.77v7.54h-1.49Z"/>
      <path class="cls-6" d="M902.65,204.95c-2.09,0-3.02-1.15-2.95-3.46l.17-6.5-1.68-.1,.07-.94,1.66-.38,.07-2.5h1.42l-.07,2.57h3.67l-.07,1.32h-3.65l-.17,6.58c-.05,1.39,.46,2.06,1.61,2.06,.72,0,1.44-.24,2.11-.53l.26,1.3c-.77,.36-1.66,.58-2.45,.58Z"/>
    </g>
    <g>
      <path class="cls-6" d="M1475.77,78.35l-2.78,.77-.07-2.42,5.66-1.49v11.79h-2.81v-8.64Z"/>
      <path class="cls-6" d="M1484,91.26l-.74-2.42c3.36-.72,5.9-2.38,6.6-5.02l-.07-.05c-.84,.84-2.06,1.46-3.67,1.46-2.52,0-4.51-1.75-4.51-4.63,0-3.02,2.09-5.38,5.57-5.38s5.67,2.86,5.67,6.58c0,4.37-3.1,8.4-8.83,9.46Zm3.07-13.73c-1.58,0-2.59,1.13-2.59,2.81s1.03,2.66,2.54,2.66c1.13,0,2.18-.55,2.74-1.06,.07-.29,.1-.7,.1-1.06,0-1.78-1.03-3.36-2.78-3.36Z"/>
      <path class="cls-6" d="M1499.07,81.56c3.34,0,5.28,1.92,5.28,4.58,0,3.14-2.38,5.33-5.74,5.33-1.51,0-3.22-.38-4.34-.96l.36-2.52c.98,.5,2.59,1.06,3.94,1.06,1.78,0,3-1.03,3-2.71,0-1.39-1.06-2.57-3.24-2.57-1.3,0-2.16,.17-2.98,.43l-.53-.53,1.01-8.11h8.14l.07,2.47h-5.9l-.48,3.62c.38-.02,.74-.1,1.42-.1Z"/>
      <path class="cls-6" d="M1516.42,82.95c0,2.42-1.8,4.39-5.38,4.39-3.34,0-5.3-1.7-5.3-4.1,0-1.8,1.39-3.17,2.95-3.55-1.49-.7-2.74-1.73-2.74-3.5,0-2.52,1.85-4.37,5.28-4.37,3.22,0,4.94,1.75,4.94,4.1,0,1.66-1.18,2.95-2.62,3.43,1.56,.72,2.86,1.75,2.86,3.6Zm-7.97,0c0,1.32,1.1,2.23,2.74,2.23s2.54-.74,2.54-2.02c0-1.37-1.49-2.04-3.29-2.71-1.25,.5-1.99,1.44-1.99,2.5Zm5.06-6.74c0-1.39-1.03-2.23-2.38-2.23-1.56,0-2.45,.91-2.45,2.04,0,1.25,1.34,1.92,3.1,2.57,1.06-.5,1.73-1.39,1.73-2.38Z"/>
      <path class="cls-6" d="M1473.92,115.79v-15h1.54v13.56h7.42v1.44h-8.95Z"/>
      <path class="cls-6" d="M1485.75,110.46c.05,2.47,1.54,4.25,3.84,4.25,1.2,0,2.35-.36,3.19-.91l.29,1.37c-.94,.58-2.16,.94-3.53,.94-3.17,0-5.3-2.38-5.3-5.71s2.21-5.9,5.18-5.9c2.42,0,4.01,1.58,4.01,4.06,0,.58-.1,1.27-.24,1.75l-7.44,.05v.12Zm6.19-1.32c.02-.12,.02-.36,.02-.48,0-1.68-.91-2.83-2.64-2.83-1.97,0-3.24,1.51-3.48,3.34l6.1-.02Z"/>
      <path class="cls-6" d="M1500.42,116.1c-.89,0-1.97-.26-2.69-.6l-1.49,.65v-16.54l1.49-.31v6.65c.74-.7,1.9-1.39,3.31-1.39,2.9,0,4.8,2.3,4.8,5.59,0,3.46-2.26,5.95-5.42,5.95Zm.34-10.18c-1.2,0-2.23,.5-3.02,1.22,0-.07,0,6.74,0,6.74,.67,.53,1.71,.86,2.76,.86,2.35,0,3.82-1.9,3.82-4.54,0-2.5-1.37-4.3-3.55-4.3Z"/>
      <path class="cls-6" d="M1514.26,114.47c-.74,.91-1.92,1.63-3.22,1.63-2.02,0-3.48-1.3-3.48-3.05,0-1.99,1.56-3.62,6.67-3.91v-.65c0-1.73-.77-2.62-2.59-2.62-1.2,0-2.66,.62-3.6,1.32l-.34-1.39c.98-.7,2.64-1.32,4.08-1.32,2.54,0,3.96,1.15,3.94,3.94v5.28c0,.79,.14,1.13,1.1,1.1l-.1,1.22c-1.44,.1-2.23-.48-2.4-1.56h-.07Zm-.02-4.32c-3.77,.43-5.11,1.27-5.11,2.74,0,1.18,.96,1.92,2.26,1.92,1.18,0,2.18-.67,2.86-1.44v-3.22Z"/>
      <path class="cls-6" d="M1526.29,115.79v-7.1c0-1.92-.77-2.78-2.42-2.78-1.2,0-2.42,.65-3.34,1.56v8.33h-1.49v-10.99l1.49-.31v1.8c1.15-1.15,2.59-1.8,3.75-1.8,2.21,0,3.5,1.37,3.5,3.77v7.54h-1.49Z"/>
      <path class="cls-6" d="M1531.95,110.46c.05,2.47,1.54,4.25,3.84,4.25,1.2,0,2.35-.36,3.19-.91l.29,1.37c-.94,.58-2.16,.94-3.53,.94-3.17,0-5.3-2.38-5.3-5.71s2.21-5.9,5.18-5.9c2.42,0,4.01,1.58,4.01,4.06,0,.58-.1,1.27-.24,1.75l-7.44,.05v.12Zm6.19-1.32c.02-.12,.02-.36,.02-.48,0-1.68-.91-2.83-2.64-2.83-1.97,0-3.24,1.51-3.48,3.34l6.1-.02Z"/>
      <path class="cls-6" d="M1545.1,116.1c-1.3,0-2.66-.38-3.6-.98l.41-1.37c.94,.62,2.11,1.01,3.24,1.01,1.32,0,2.47-.65,2.47-1.85,0-1.32-1.39-1.7-2.76-2.14-1.51-.46-3.19-1.2-3.19-3.12s1.66-3.17,3.72-3.17c1.2,0,2.4,.34,3.34,.82l-.43,1.34c-.91-.5-2.04-.82-3-.82-1.34,0-2.21,.62-2.21,1.68,0,1.25,1.3,1.63,2.71,2.06,1.56,.46,3.24,1.18,3.24,3.22s-1.73,3.31-3.94,3.31Z"/>
      <path class="cls-6" d="M1552.52,110.46c.05,2.47,1.54,4.25,3.84,4.25,1.2,0,2.35-.36,3.19-.91l.29,1.37c-.94,.58-2.16,.94-3.53,.94-3.17,0-5.3-2.38-5.3-5.71s2.21-5.9,5.18-5.9c2.42,0,4.01,1.58,4.01,4.06,0,.58-.1,1.27-.24,1.75l-7.44,.05v.12Zm6.19-1.32c.02-.12,.02-.36,.02-.48,0-1.68-.91-2.83-2.64-2.83-1.97,0-3.24,1.51-3.48,3.34l6.1-.02Z"/>
      <path class="cls-6" d="M1579.28,103.07c-1.2-.77-2.59-1.2-4.18-1.2-3.26,0-5.66,2.33-5.66,6.41s2.28,6.43,5.71,6.43c1.63,0,3.17-.58,4.2-1.34l.29,1.51c-1.1,.72-2.76,1.22-4.51,1.22-4.34,0-7.25-3.02-7.25-7.78s3.05-7.85,7.25-7.85c1.82,0,3.53,.55,4.63,1.22l-.48,1.37Z"/>
      <path class="cls-6" d="M1583.31,102.27c-.67,0-1.01-.53-1.01-1.1s.34-1.06,1.01-1.06,1.01,.5,1.01,1.06-.34,1.1-1.01,1.1Zm-.74,13.51v-10.99l1.49-.31v11.31h-1.49Z"/>
      <path class="cls-6" d="M1591.59,115.81h-1.34l-4.34-11.02h1.61l3.48,9.07,3.36-9.07h1.56l-4.32,11.02Z"/>
      <path class="cls-6" d="M1598.5,102.27c-.67,0-1.01-.53-1.01-1.1s.34-1.06,1.01-1.06,1.01,.5,1.01,1.06-.34,1.1-1.01,1.1Zm-.74,13.51v-10.99l1.49-.31v11.31h-1.49Z"/>
      <path class="cls-6" d="M1602.75,115.79v-16.18l1.49-.31v16.49h-1.49Z"/>
      <path class="cls-6" d="M1623.97,103.07c-1.2-.77-2.59-1.2-4.18-1.2-3.26,0-5.66,2.33-5.66,6.41s2.28,6.43,5.71,6.43c1.63,0,3.17-.58,4.2-1.34l.29,1.51c-1.1,.72-2.76,1.22-4.51,1.22-4.34,0-7.25-3.02-7.25-7.78s3.05-7.85,7.25-7.85c1.82,0,3.53,.55,4.63,1.22l-.48,1.37Z"/>
      <path class="cls-6" d="M1627.23,115.79v-16.18l1.49-.31v16.49h-1.49Z"/>
      <path class="cls-6" d="M1637.93,114.47c-.74,.91-1.92,1.63-3.22,1.63-2.02,0-3.48-1.3-3.48-3.05,0-1.99,1.56-3.62,6.67-3.91v-.65c0-1.73-.77-2.62-2.59-2.62-1.2,0-2.66,.62-3.6,1.32l-.34-1.39c.98-.7,2.64-1.32,4.08-1.32,2.54,0,3.96,1.15,3.94,3.94v5.28c0,.79,.14,1.13,1.1,1.1l-.1,1.22c-1.44,.1-2.23-.48-2.4-1.56h-.07Zm-.02-4.32c-3.77,.43-5.11,1.27-5.11,2.74,0,1.18,.96,1.92,2.26,1.92,1.18,0,2.18-.67,2.86-1.44v-3.22Z"/>
      <path class="cls-6" d="M1645.37,116.1c-1.3,0-2.66-.38-3.6-.98l.41-1.37c.94,.62,2.11,1.01,3.24,1.01,1.32,0,2.47-.65,2.47-1.85,0-1.32-1.39-1.7-2.76-2.14-1.51-.46-3.19-1.2-3.19-3.12s1.66-3.17,3.72-3.17c1.2,0,2.4,.34,3.34,.82l-.43,1.34c-.91-.5-2.04-.82-3-.82-1.34,0-2.21,.62-2.21,1.68,0,1.25,1.3,1.63,2.71,2.06,1.56,.46,3.24,1.18,3.24,3.22s-1.73,3.31-3.94,3.31Z"/>
      <path class="cls-6" d="M1659.25,115.79v-7.1c0-1.92-.77-2.78-2.35-2.78-1.27,0-2.5,.65-3.41,1.56v8.33h-1.49v-16.18l1.49-.31v6.94c1.15-1.15,2.59-1.75,3.82-1.75,2.14,0,3.43,1.37,3.43,3.77v7.54h-1.49Z"/>
      <path class="cls-6" d="M1664.91,110.46c.05,2.47,1.54,4.25,3.84,4.25,1.2,0,2.35-.36,3.19-.91l.29,1.37c-.94,.58-2.16,.94-3.53,.94-3.17,0-5.3-2.38-5.3-5.71s2.21-5.9,5.18-5.9c2.42,0,4.01,1.58,4.01,4.06,0,.58-.1,1.27-.24,1.75l-7.44,.05v.12Zm6.19-1.32c.02-.12,.02-.36,.02-.48,0-1.68-.91-2.83-2.64-2.83-1.97,0-3.24,1.51-3.48,3.34l6.1-.02Z"/>
      <path class="cls-6" d="M1678.06,116.1c-1.3,0-2.66-.38-3.6-.98l.41-1.37c.94,.62,2.11,1.01,3.24,1.01,1.32,0,2.47-.65,2.47-1.85,0-1.32-1.39-1.7-2.76-2.14-1.51-.46-3.19-1.2-3.19-3.12s1.66-3.17,3.72-3.17c1.2,0,2.4,.34,3.34,.82l-.43,1.34c-.91-.5-2.04-.82-3-.82-1.34,0-2.21,.62-2.21,1.68,0,1.25,1.3,1.63,2.71,2.06,1.56,.46,3.24,1.18,3.24,3.22s-1.73,3.31-3.94,3.31Z"/>
    </g>
  </g>
</svg>