<svg xmlns="http://www.w3.org/2000/svg" version="1.1" xmlns:xlink="http://www.w3.org/1999/xlink" xmlns:svgjs="http://svgjs.com/svgjs" width="640" height="640"><svg id="SvgjsSvg1000" data-name="Layer 1" xmlns="http://www.w3.org/2000/svg" viewBox="0 0 640 640">
  <g>
    <polygon points="354.52 379.56 349.87 398.99 388.33 437.98 374.19 385.2 354.52 379.56" style="fill: #ac4714;"></polygon>
    <path d="M254.5,413.55l-6.98,23,39.63-37.63-4.44-19.97-17.29,4.65c.94,8.8,2.26,19.17,4.11,31.27,0,0-6.1-.49-15.04-1.32Z" style="fill: #ac4714;"></path>
    <polygon points="304.78 403.77 317.52 457.04 332.73 404.55 318.81 389.55 304.78 403.77" style="fill: #ac4714;"></polygon>
    <polygon points="179.99 317.02 232.53 332.05 247.48 318.09 233.22 304.1 179.99 317.02" style="fill: #ac4714;"></polygon>
    <path d="M318.53,267.01l-11.27-8.64c-2.59-.03-5.23-.06-7.9-.12l-6.48,15.63-21.62-2.84,2.84,21.62-20.14,8.35,13.27,17.3-13.27,17.3,20.14,8.35-2.84,21.62,21.62-2.84,8.35,20.14,17.3-13.27,17.3,13.27,8.35-20.14,21.62,2.84-2.84-21.62,10.78-4.47c.13-2.76,.31-8.09,.26-15.74l-4.17-5.43,3.96-5.16c-.15-4.87-.4-10.32-.78-16.32l-10.05-4.16,2.84-21.62-21.62,2.84-6.5-15.69c-2.5,.05-5.11,.1-7.82,.14l-11.32,8.68Z" style="fill: #ac4714;"></path>
    <path d="M294.8,125.73c-4.54,15.15-14.53,56.83-14.53,56.83-7.95-.34-18.08-1.47-27.98-2.8l23.22,23.88c1.37-6.58,2.95-13.62,4.77-21.08,0,0,8.21,.84,21.68,1.2l8.56-33.86-11.5-39.16-36.18-.34-11.17,6.59c-1.51,2.1-3,4.19-4.45,6.26,12.7,.71,47.59,2.49,47.59,2.49Z" style="fill: #ac4714;"></path>
    <path d="M190.3,233.43l55.87,15.05-21.62-70.4-3.43-3.16c-2.27-.39-4.03-.71-5.1-.9-14,26.27-21.74,47.01-25.72,59.41Z" style="fill: #ac4714;"></path>
    <path d="M157.07,398.02l11.54-2.8,16.26-15.66c-3.08-12.88-6.17-29.28-7.23-46.35l-27.46-6.81-24.63,7.23c1.42,17.52,4.56,42.43,11.5,58.89,0,0-9.37-3.23-19.91-7.2l11.62,19.58,10.87-2.64c-1.17-3.35-2.21-6.66-3.04-9.84,0,0,8.9,2.6,20.49,5.6Z" style="fill: #ac4714;"></path>
    <path d="M151.82,430.75l-5.29,5.35,12.52,23.26c2.95,.6,6.06,1.22,9.34,1.84-1.19-1.96-8.82-14.69-16.57-30.45Z" style="fill: #ac4714;"></path>
    <path d="M219.08,463.49l5.77-5.32,14.17-46.12c-16.35-1.68-35.4-3.92-46.63-6.23,0,0,7,24.23,26.7,57.67Z" style="fill: #ac4714;"></path>
    <path d="M298.68,514.37l8.81-28.19-16.47-71.78-52.01,52.14-1.26,4.82c14.77,1.46,30.12,2.48,45.46,2.74,0,0,3.7,15.8,15.48,40.26Z" style="fill: #ac4714;"></path>
    <path d="M409.88,459.48l6.43,6.13c15.04-23.08,24.94-50.3,28.5-60.96l-55.32-15.94,20.39,70.77Z" style="fill: #ac4714;"></path>
    <path d="M439.56,487.79l31.39-17.62,6.12-10.91c-24.58,4.77-47.99,7.83-57.94,9.04l20.42,19.48Z" style="fill: #ac4714;"></path>
    <path d="M466.26,242.67l-14.06,13.54c2.33,10.52,5.69,28.1,6.91,46.49l27.6,6.84,39.36-11.55,.44-36-18.38-30.95-10.18,2.47c.16,.42,.32,.84,.48,1.27,0,0-14.96,3.95-32.17,7.88Z" style="fill: #ac4714;"></path>
    <path d="M458.89,162.94s12.27,15.58,24.67,38.85l4.7-4.93-17.62-31.39-7.01-3.93c-1.67,.49-3.37,1.01-5.01,1.47l.26-.06Z" style="fill: #ac4714;"></path>
    <path d="M420.63,172.45c-3.14,.67-6.16,1.28-9.11,1.86l-1.94,1.86-20.39,70.76,56.02-16.14c-5.01-15.7-13.77-40.22-24.61-58.33h.03Z" style="fill: #ac4714;"></path>
    <polygon points="198.58 250.6 237.2 289.27 257.05 284.33 251.38 265.17 198.58 250.6" style="fill: #ac4714;"></polygon>
    <path d="M363.76,219.23c1.85,11.02,3.61,22.57,4.71,31.79l3.16-.99,13.65-53.05-21.51,22.25Z" style="fill: #ac4714;"></path>
    <path d="M184.63,404.43c2.7,.53,5.31,1,7.75,1.39,0,0-.41-1.14-1.07-3.19l-6.68,1.8Z" style="fill: #ac4714;"></path>
  </g>
  <g>
    <path d="M318.9,550.45l26.04-1.33c35.47-26.94,69.18-80.22,69.18-80.22-24.4,3.25-60.47,4.94-60.47,4.94-17.72,53.64-34.75,76.61-34.75,76.61Z" style="fill: #d9c7bb;"></path>
    <path d="M543.31,375.62s-16.56,5.47-41.36,11.93c9.24-25.79,10.87-72.36,10.87-72.36l-53.72,13.25c-3.49,51.32-12.8,71.59-12.8,71.59,0,0-.51,1.7-1.49,4.62l15.45,4.45,28.31,29.68-11.5,20.49c10.4-2.02,21.02-4.34,30.91-6.95,0,0,29.64-44.97,35.34-76.7Zm-66.69,18.13c11.98-2.81,22.8-5.55,24.93-6.09-7.62,1.98-16.01,4.05-24.93,6.09Z" style="fill: #d9c7bb;"></path>
    <path d="M373.78,313.14c.12,3.91,.19,7.45,.21,10.6l9.1,11.86-9.36,3.88c-.07,1.44-.12,2.18-.12,2.18,28.91-2.15,85.49-13.21,85.49-13.21,.7-8.33,.59-17.13,.02-25.75l-43.88-10.88,36.97-35.61c-1.37-6.21-2.39-9.97-2.39-9.97-22.79,6.81-80.7,10.72-80.7,10.72,1.95,15.1,3.15,28.46,3.88,39.87l10.09,4.18-9.31,12.14Zm31.84-9.44l52.96,13.51-52.84,14.45-14.66-13.57,14.54-14.39Z" style="fill: #d9c7bb;"></path>
    <path d="M468.27,240.73l29.68-7.21c-4.27-11.5-9.34-22.25-14.39-31.73l-23.61,24.75-14.74,4.25c2.95,9.26,4.6,15.45,4.6,15.45,5.44-1.11,11.05-2.34,16.45-3.57l2.01-1.94Z" style="fill: #d9c7bb;"></path>
    <path d="M463.64,161.53c6.06-1.77,12.24-3.65,18.62-5.74,0,0-15.59-18.53-49.33-38.11,0,0-20.58,2.62-43.75,4.74l-23.32-30.73s-23.54-4.68-36.01-4.59c0,0,10.06,27.95,11.93,37.99,0,0,2.99,0,7.51-.06-2.65,.06-5.18,.09-7.51,.06,0,0,9.26,30.71,14.57,56.82,0,0,21.34-.97,55.17-7.61l27.73-26.46,24.39,13.68Z" style="fill: #d9c7bb;"></path>
    <path d="M221.65,344.13l-36.78,35.43c2.54,10.62,5.06,18.83,6.44,23.07l55.16-14.86-7.46,24.28c5.63,.58,10.92,1.09,15.48,1.51l8.92-29.41,2-.54c-3.05-28.67-2.01-40.59-2.01-40.59-37.23-1.67-85.97-13.39-85.97-13.39,.05,1.2,.12,2.4,.19,3.6l44.02,10.92Z" style="fill: #d9c7bb;"></path>
    <path d="M110.81,337.95l14.72-4.32c-.92-11.39-1.11-19.67-1.13-20.42,23.54,9.94,53.03,16.4,53.03,16.4-2.29-38.18,9.24-83.38,9.24-83.38,0,0,.99-4.59,3.62-12.81l-15.24-4.11-28.83-29.18,17.07-31.7,31.08-18.16,26.74,24.63c6.98,1.21,18.89,3.19,31.16,4.84l-11-11.32-9.62-39.67,20-11.8c5.9-8.21,12.28-16.65,19.24-25.29,0,0-109.75,16.11-164.74,133.29,0,0,13.95,5.09,31.99,10.38h-.02c-16.11,45.35-14.18,77.66-14.18,77.66,.02,0,.04,.01,.05,.02-9.67-1.86-36.03-16.93-36.03-16.93,0,8.15-4.1,39.05,5.81,79.15,.18,.73,.13,.46,.13,.46,5.75,2.83,14.85,6.45,23.22,9.6l-6.76-11.38,.44-36Z" style="fill: #d9c7bb;"></path>
    <path d="M295.25,525.34l-36-.19-30.63-18.92,9.11-34.86c-5.04-.5-10.02-1.05-14.9-1.64-1.31-2.12-2.55-4.2-3.76-6.25l-24.4,22.47-31.08-18.16-4.54-8.44c-18.85-3.83-30.61-6.91-30.61-6.91,26.61,41.06,73.18,67.45,73.18,67.45,11.56,6.34,23.05,11.35,34.07,15.34,18.99,6.96,34.85,10.25,44.6,11.77,23.13,3.97,38.6,3.44,38.6,3.44-8.5-13.27-15.11-25.48-20.22-36.08l-3.43,10.96Z" style="fill: #d9c7bb;"></path>
    <path d="M275.5,203.64c-6.76,32.46-8.41,53.31-8.41,53.31,11.01,.7,21.91,1.1,32.28,1.3l1.87-4.51,6.03,4.63c8.03,.08,15.64,.05,22.59-.04l5.98-4.59,1.84,4.45c18.97-.41,31.44-1.24,31.44-1.24-.18-1.83-.4-3.82-.65-5.93l-15.9,5.01-5.29-19.76,16.47-17.04c-3.28-19.54-6.82-37.37-7.4-37.32-13.36,1.28-25.82,1.82-36.62,1.96l12.87,49.75-13.77,14.47-14.19-14.74,13.35-49.47c-5.92,.05-11.31,0-16.05-.13l-9.45,37.37-16.99-17.48Z" style="fill: #d9c7bb;"></path>
    <path d="M184.63,404.43c-9-1.77-19-4.2-27.55-6.41l-17.45,4.24c3.32,9.53,7.78,19.51,12.2,28.5l23.54-23.83,9.27-2.5Z" style="fill: #d9c7bb;"></path>
    <path d="M414.11,468.9s1.82-.2,5.02-.59l-2.83-2.7c-.72,1.1-1.45,2.2-2.19,3.29Z" style="fill: #d9c7bb;"></path>
  </g>
  <g>
    <path d="M460.25,409.11l-15.45-4.45c-3.57,10.66-13.47,37.88-28.5,60.96l2.83,2.7c9.95-1.21,33.35-4.27,57.94-9.04l11.5-20.49-28.31-29.68Z" style="fill: #b47e5d;"></path>
    <polygon points="458.57 317.21 405.62 303.7 391.08 318.09 405.74 331.65 458.57 317.21" style="fill: #b47e5d;"></polygon>
    <path d="M383.09,301l-10.09-4.18c.38,6,.63,11.45,.78,16.32l9.31-12.14Z" style="fill: #b47e5d;"></path>
    <path d="M373.99,323.73c.06,7.65-.12,12.98-.26,15.74l9.36-3.88-9.1-11.86Z" style="fill: #b47e5d;"></path>
    <path d="M415.23,291.81l43.88,10.88c-1.22-18.4-4.58-35.97-6.91-46.49l-36.97,35.61Z" style="fill: #b47e5d;"></path>
    <path d="M483.56,201.79c-12.4-23.27-24.67-38.85-24.67-38.85l-.26,.06c1.64-.47,3.35-.99,5.01-1.47l-24.39-13.68-27.73,26.46c2.96-.58,5.97-1.19,9.11-1.86h-.03c10.84,18.11,19.6,42.63,24.61,58.34l14.74-4.25,23.61-24.75Z" style="fill: #b47e5d;"></path>
    <path d="M254.5,413.55c8.94,.83,15.04,1.32,15.04,1.32-1.86-12.11-3.18-22.47-4.11-31.27l-2,.54-8.92,29.41Z" style="fill: #b47e5d;"></path>
    <path d="M191.31,402.63c.67,2.05,1.07,3.19,1.07,3.19,11.24,2.31,30.28,4.55,46.63,6.23l7.46-24.28-55.16,14.86Z" style="fill: #b47e5d;"></path>
    <path d="M241.28,168.44l11,11.32c9.9,1.34,20.04,2.46,27.98,2.8,0,0,9.99-41.68,14.53-56.83,0,0-34.89-1.78-47.59-2.49,1.44-2.07,2.94-4.16,4.45-6.26l-20,11.8,9.62,39.67Z" style="fill: #b47e5d;"></path>
    <path d="M163.3,168.45l-17.07,31.7,28.83,29.18,15.24,4.11c3.97-12.4,11.72-33.14,25.72-59.41,1.07,.19,2.83,.51,5.1,.9l-26.74-24.63-31.08,18.16Z" style="fill: #b47e5d;"></path>
    <path d="M125.54,333.63l-14.72,4.32-.44,36,6.76,11.38c10.54,3.97,19.91,7.2,19.91,7.2-6.94-16.46-10.09-41.37-11.5-58.89Z" style="fill: #b47e5d;"></path>
    <path d="M136.58,392.42c.84,3.18,1.87,6.48,3.04,9.84l17.45-4.24c-11.59-3-20.49-5.6-20.49-5.6Z" style="fill: #b47e5d;"></path>
    <path d="M194.68,485.96l24.4-22.47c-19.7-33.44-26.7-57.67-26.7-57.67-2.45-.39-5.06-.86-7.75-1.39l-9.27,2.5-23.54,23.83c7.75,15.76,15.39,28.49,16.57,30.45-3.28-.63-6.39-1.24-9.34-1.84l4.54,8.44,31.08,18.16Z" style="fill: #b47e5d;"></path>
    <path d="M259.26,525.15l36,.19,3.43-10.96c-11.78-24.46-15.48-40.26-15.48-40.26-15.34-.26-30.69-1.28-45.46-2.74l-9.11,34.86,30.63,18.92Z" style="fill: #b47e5d;"></path>
    <path d="M352.57,256.03l15.9-5.01c-1.1-9.22-2.86-20.77-4.71-31.79l-16.47,17.04,5.29,19.76Z" style="fill: #b47e5d;"></path>
    <path d="M318.83,248.09l13.77-14.47-12.87-49.75c-.59,0-1.16,.01-1.74,.02l-13.35,49.47,14.19,14.74Z" style="fill: #b47e5d;"></path>
    <path d="M275.5,203.64l16.99,17.48,9.45-37.37c-13.47-.35-21.68-1.2-21.68-1.2-1.82,7.46-3.4,14.5-4.77,21.08Z" style="fill: #b47e5d;"></path>
    <path d="M177.64,333.21c1.06,17.07,4.15,33.46,7.23,46.35l36.78-35.43-44.02-10.92Z" style="fill: #b47e5d;"></path>
    <path d="M329.85,258.32c2.71-.04,5.32-.08,7.82-.14l-1.84-4.45-5.98,4.59Z" style="fill: #b47e5d;"></path>
    <path d="M301.23,253.74l-1.87,4.51c2.67,.05,5.31,.09,7.9,.12l-6.03-4.63Z" style="fill: #b47e5d;"></path>
    <path d="M466.26,242.67c17.21-3.93,32.17-7.88,32.17-7.88-.16-.43-.32-.85-.48-1.27l-29.68,7.21-2.01,1.94Z" style="fill: #b47e5d;"></path>
  </g>
</svg><style>@media (prefers-color-scheme: light) { :root { filter: none; } }
@media (prefers-color-scheme: dark) { :root { filter: contrast(0.8333333333333334) brightness(1.7); } }
</style></svg>