<svg xmlns="http://www.w3.org/2000/svg" version="1.1" xmlns:xlink="http://www.w3.org/1999/xlink" xmlns:svgjs="http://svgjs.com/svgjs" width="470" height="470"><svg version="1.1" id="SvgjsSvg1000" xmlns="http://www.w3.org/2000/svg" xmlns:xlink="http://www.w3.org/1999/xlink" x="0px" y="0px" viewBox="0 0 470 470" style="enable-background:new 0 0 470 470;" xml:space="preserve">
<style type="text/css">
	.st0{fill:#AC4714;}
	.st1{fill:#D9C7BB;}
	.st2{fill:#B47E5D;}
</style>
<g>
	<polygon class="st0" points="269.5,294.6 264.9,314 303.3,353 289.2,300.2 	"></polygon>
	<path class="st0" d="M169.5,328.5l-7,23l39.6-37.6l-4.4-20l-17.3,4.6c0.9,8.8,2.3,19.2,4.1,31.3
		C184.5,329.9,178.4,329.4,169.5,328.5L169.5,328.5z"></path>
	<polygon class="st0" points="219.8,318.8 232.5,372 247.7,319.5 233.8,304.5 	"></polygon>
	<polygon class="st0" points="95,232 147.5,247 162.5,233.1 148.2,219.1 	"></polygon>
	<path class="st0" d="M233.5,182l-11.3-8.6c-2.6,0-5.2-0.1-7.9-0.1l-6.5,15.6l-21.6-2.8l2.8,21.6L169,216l13.3,17.3L169,250.6
		l20.1,8.4l-2.8,21.6l21.6-2.8l8.4,20.1l17.3-13.3l17.3,13.3l8.4-20.1l21.6,2.8L278,259l10.8-4.5c0.1-2.8,0.3-8.1,0.3-15.7l-4.2-5.4
		l4-5.2c-0.1-4.9-0.4-10.3-0.8-16.3l-10-4.2l2.8-21.6l-21.6,2.8l-6.5-15.7c-2.5,0-5.1,0.1-7.8,0.1L233.5,182L233.5,182z"></path>
	<path class="st0" d="M209.8,40.7c-4.5,15.2-14.5,56.8-14.5,56.8c-8-0.3-18.1-1.5-28-2.8l23.2,23.9c1.4-6.6,3-13.6,4.8-21.1
		c0,0,8.2,0.8,21.7,1.2l8.6-33.9L214,25.7l-36.2-0.3L166.7,32c-1.5,2.1-3,4.2-4.4,6.3C174.9,39,209.8,40.7,209.8,40.7L209.8,40.7z"></path>
	<path class="st0" d="M105.3,148.4l55.9,15.1l-21.6-70.4l-3.4-3.2c-2.3-0.4-4-0.7-5.1-0.9C117,115.3,109.3,136,105.3,148.4z"></path>
	<path class="st0" d="M72.1,313l11.5-2.8l16.3-15.7c-3.1-12.9-6.2-29.3-7.2-46.4l-27.5-6.8l-24.6,7.2c1.4,17.5,4.6,42.4,11.5,58.9
		c0,0-9.4-3.2-19.9-7.2l11.6,19.6l10.9-2.6c-1.2-3.4-2.2-6.7-3-9.8C51.6,307.4,60.5,310,72.1,313L72.1,313z"></path>
	<path class="st0" d="M66.8,345.8l-5.3,5.4l12.5,23.3c2.9,0.6,6.1,1.2,9.3,1.8C82.2,374.2,74.6,361.5,66.8,345.8z"></path>
	<path class="st0" d="M134.1,378.5l5.8-5.3L154,327c-16.4-1.7-35.4-3.9-46.6-6.2C107.4,320.8,114.4,345,134.1,378.5L134.1,378.5z"></path>
	<path class="st0" d="M213.7,429.4l8.8-28.2L206,329.4l-52,52.1l-1.3,4.8c14.8,1.5,30.1,2.5,45.5,2.7
		C198.2,389.1,201.9,404.9,213.7,429.4L213.7,429.4z"></path>
	<path class="st0" d="M324.9,374.5l6.4,6.1c15-23.1,24.9-50.3,28.5-61l-55.3-15.9L324.9,374.5z"></path>
	<path class="st0" d="M354.6,402.8l31.4-17.6l6.1-10.9c-24.6,4.8-48,7.8-57.9,9L354.6,402.8L354.6,402.8z"></path>
	<path class="st0" d="M381.3,157.7l-14.1,13.5c2.3,10.5,5.7,28.1,6.9,46.5l27.6,6.8l39.4-11.5l0.4-36L423.1,146l-10.2,2.5
		c0.2,0.4,0.3,0.8,0.5,1.3C413.4,149.8,398.5,153.7,381.3,157.7L381.3,157.7z"></path>
	<path class="st0" d="M373.9,77.9c0,0,12.3,15.6,24.7,38.9l4.7-4.9l-17.6-31.4l-7-3.9c-1.7,0.5-3.4,1-5,1.5L373.9,77.9L373.9,77.9z"></path>
	<path class="st0" d="M335.6,87.4c-3.1,0.7-6.2,1.3-9.1,1.9l-1.9,1.9l-20.4,70.8l56-16.1C355.2,130.1,346.4,105.6,335.6,87.4
		L335.6,87.4L335.6,87.4z"></path>
	<polygon class="st0" points="113.6,165.6 152.2,204.3 172,199.3 166.4,180.2 	"></polygon>
	<path class="st0" d="M278.8,134.2c1.9,11,3.6,22.6,4.7,31.8l3.2-1l13.6-53.1L278.8,134.2L278.8,134.2z"></path>
	<path class="st0" d="M99.6,319.4c2.7,0.5,5.3,1,7.8,1.4c0,0-0.4-1.1-1.1-3.2L99.6,319.4z"></path>
</g>
<g>
	<path class="st1" d="M233.9,465.5l26-1.3c35.5-26.9,69.2-80.2,69.2-80.2c-24.4,3.2-60.5,4.9-60.5,4.9
		C250.9,442.5,233.9,465.5,233.9,465.5z"></path>
	<path class="st1" d="M458.3,290.6c0,0-16.6,5.5-41.4,11.9c9.2-25.8,10.9-72.4,10.9-72.4l-53.7,13.2c-3.5,51.3-12.8,71.6-12.8,71.6
		s-0.5,1.7-1.5,4.6l15.5,4.5l28.3,29.7l-11.5,20.5c10.4-2,21-4.3,30.9-7C423,367.3,452.6,322.3,458.3,290.6L458.3,290.6z
		 M391.6,308.8c12-2.8,22.8-5.5,24.9-6.1C408.9,304.6,400.5,306.7,391.6,308.8z"></path>
	<path class="st1" d="M288.8,228.1c0.1,3.9,0.2,7.5,0.2,10.6l9.1,11.9l-9.4,3.9c-0.1,1.4-0.1,2.2-0.1,2.2
		c28.9-2.1,85.5-13.2,85.5-13.2c0.7-8.3,0.6-17.1,0-25.8l-43.9-10.9l37-35.6c-1.4-6.2-2.4-10-2.4-10c-22.8,6.8-80.7,10.7-80.7,10.7
		c2,15.1,3.1,28.5,3.9,39.9l10.1,4.2L288.8,228.1L288.8,228.1z M320.6,218.7l53,13.5l-52.8,14.5l-14.7-13.6L320.6,218.7z"></path>
	<path class="st1" d="M383.3,155.7l29.7-7.2c-4.3-11.5-9.3-22.2-14.4-31.7l-23.6,24.8l-14.7,4.2c3,9.3,4.6,15.4,4.6,15.4
		c5.4-1.1,11-2.3,16.5-3.6L383.3,155.7L383.3,155.7z"></path>
	<path class="st1" d="M378.6,76.5c6.1-1.8,12.2-3.6,18.6-5.7c0,0-15.6-18.5-49.3-38.1c0,0-20.6,2.6-43.8,4.7L280.9,6.7
		c0,0-23.5-4.7-36-4.6c0,0,10.1,27.9,11.9,38c0,0,3,0,7.5-0.1c-2.6,0.1-5.2,0.1-7.5,0.1c0,0,9.3,30.7,14.6,56.8c0,0,21.3-1,55.2-7.6
		l27.7-26.5L378.6,76.5L378.6,76.5z"></path>
	<path class="st1" d="M136.6,259.1l-36.8,35.4c2.5,10.6,5.1,18.8,6.4,23.1l55.2-14.9l-7.5,24.3c5.6,0.6,10.9,1.1,15.5,1.5l8.9-29.4
		l2-0.5c-3-28.7-2-40.6-2-40.6c-37.2-1.7-86-13.4-86-13.4c0.1,1.2,0.1,2.4,0.2,3.6L136.6,259.1L136.6,259.1z"></path>
	<path class="st1" d="M25.8,253l14.7-4.3c-0.9-11.4-1.1-19.7-1.1-20.4c23.5,9.9,53,16.4,53,16.4c-2.3-38.2,9.2-83.4,9.2-83.4
		s1-4.6,3.6-12.8L90,144.3l-28.8-29.2l17.1-31.7l31.1-18.2l26.7,24.6c7,1.2,18.9,3.2,31.2,4.8l-11-11.3l-9.6-39.7l20-11.8
		c5.9-8.2,12.3-16.7,19.2-25.3c0,0-109.8,16.1-164.7,133.3c0,0,13.9,5.1,32,10.4h0C37,195.7,38.9,228,38.9,228c0,0,0,0,0.1,0
		c-9.7-1.9-36-16.9-36-16.9c0,8.1-4.1,39,5.8,79.1c0.2,0.7,0.1,0.5,0.1,0.5c5.8,2.8,14.8,6.5,23.2,9.6l-6.8-11.4L25.8,253L25.8,253z
		"></path>
	<path class="st1" d="M210.2,440.3l-36-0.2l-30.6-18.9l9.1-34.9c-5-0.5-10-1-14.9-1.6c-1.3-2.1-2.6-4.2-3.8-6.2l-24.4,22.5
		l-31.1-18.2l-4.5-8.4c-18.9-3.8-30.6-6.9-30.6-6.9c26.6,41.1,73.2,67.4,73.2,67.4c11.6,6.3,23.1,11.3,34.1,15.3
		c19,7,34.9,10.2,44.6,11.8c23.1,4,38.6,3.4,38.6,3.4c-8.5-13.3-15.1-25.5-20.2-36.1L210.2,440.3L210.2,440.3z"></path>
	<path class="st1" d="M190.5,118.6c-6.8,32.5-8.4,53.3-8.4,53.3c11,0.7,21.9,1.1,32.3,1.3l1.9-4.5l6,4.6c8,0.1,15.6,0,22.6,0l6-4.6
		l1.8,4.5c19-0.4,31.4-1.2,31.4-1.2c-0.2-1.8-0.4-3.8-0.6-5.9l-15.9,5l-5.3-19.8l16.5-17c-3.3-19.5-6.8-37.4-7.4-37.3
		c-13.4,1.3-25.8,1.8-36.6,2l12.9,49.8l-13.8,14.5l-14.2-14.7L233,98.9c-5.9,0.1-11.3,0-16-0.1l-9.5,37.4L190.5,118.6L190.5,118.6z"></path>
	<path class="st1" d="M99.6,319.4c-9-1.8-19-4.2-27.6-6.4l-17.4,4.2c3.3,9.5,7.8,19.5,12.2,28.5l23.5-23.8L99.6,319.4L99.6,319.4z"></path>
	<path class="st1" d="M329.1,383.9c0,0,1.8-0.2,5-0.6l-2.8-2.7C330.6,381.7,329.8,382.8,329.1,383.9z"></path>
</g>
<g>
	<path class="st2" d="M375.2,324.1l-15.5-4.5c-3.6,10.7-13.5,37.9-28.5,61l2.8,2.7c10-1.2,33.4-4.3,57.9-9l11.5-20.5L375.2,324.1
		L375.2,324.1z"></path>
	<polygon class="st2" points="373.6,232.2 320.6,218.7 306.1,233.1 320.7,246.6 	"></polygon>
	<path class="st2" d="M298.1,216l-10.1-4.2c0.4,6,0.6,11.5,0.8,16.3L298.1,216z"></path>
	<path class="st2" d="M289,238.7c0.1,7.6-0.1,13-0.3,15.7l9.4-3.9L289,238.7L289,238.7z"></path>
	<path class="st2" d="M330.2,206.8l43.9,10.9c-1.2-18.4-4.6-36-6.9-46.5L330.2,206.8z"></path>
	<path class="st2" d="M398.6,116.8c-12.4-23.3-24.7-38.8-24.7-38.8l-0.3,0.1c1.6-0.5,3.4-1,5-1.5l-24.4-13.7l-27.7,26.5
		c3-0.6,6-1.2,9.1-1.9h0c10.8,18.1,19.6,42.6,24.6,58.3l14.7-4.2L398.6,116.8L398.6,116.8z"></path>
	<path class="st2" d="M169.5,328.5c8.9,0.8,15,1.3,15,1.3c-1.9-12.1-3.2-22.5-4.1-31.3l-2,0.5L169.5,328.5L169.5,328.5z"></path>
	<path class="st2" d="M106.3,317.6c0.7,2,1.1,3.2,1.1,3.2c11.2,2.3,30.3,4.5,46.6,6.2l7.5-24.3L106.3,317.6L106.3,317.6z"></path>
	<path class="st2" d="M156.3,83.4l11,11.3c9.9,1.3,20,2.5,28,2.8c0,0,10-41.7,14.5-56.8c0,0-34.9-1.8-47.6-2.5
		c1.4-2.1,2.9-4.2,4.4-6.3l-20,11.8L156.3,83.4L156.3,83.4z"></path>
	<path class="st2" d="M78.3,83.4l-17.1,31.7l28.8,29.2l15.2,4.1c4-12.4,11.7-33.1,25.7-59.4c1.1,0.2,2.8,0.5,5.1,0.9l-26.7-24.6
		L78.3,83.4L78.3,83.4z"></path>
	<path class="st2" d="M40.5,248.6L25.8,253l-0.4,36l6.8,11.4c10.5,4,19.9,7.2,19.9,7.2C45.1,291.1,42,266.2,40.5,248.6L40.5,248.6z"></path>
	<path class="st2" d="M51.6,307.4c0.8,3.2,1.9,6.5,3,9.8l17.4-4.2C60.5,310,51.6,307.4,51.6,307.4L51.6,307.4z"></path>
	<path class="st2" d="M109.7,401l24.4-22.5c-19.7-33.4-26.7-57.7-26.7-57.7c-2.4-0.4-5.1-0.9-7.8-1.4l-9.3,2.5l-23.5,23.8
		c7.8,15.8,15.4,28.5,16.6,30.5c-3.3-0.6-6.4-1.2-9.3-1.8l4.5,8.4L109.7,401L109.7,401z"></path>
	<path class="st2" d="M174.3,440.2l36,0.2l3.4-11c-11.8-24.5-15.5-40.3-15.5-40.3c-15.3-0.3-30.7-1.3-45.5-2.7l-9.1,34.9
		L174.3,440.2L174.3,440.2z"></path>
	<path class="st2" d="M267.6,171l15.9-5c-1.1-9.2-2.9-20.8-4.7-31.8l-16.5,17L267.6,171L267.6,171z"></path>
	<path class="st2" d="M233.8,163.1l13.8-14.5l-12.9-49.8c-0.6,0-1.2,0-1.7,0l-13.4,49.5L233.8,163.1L233.8,163.1z"></path>
	<path class="st2" d="M190.5,118.6l17,17.5l9.5-37.4c-13.5-0.4-21.7-1.2-21.7-1.2C193.4,105,191.9,112.1,190.5,118.6L190.5,118.6z"></path>
	<path class="st2" d="M92.6,248.2c1.1,17.1,4.1,33.5,7.2,46.4l36.8-35.4L92.6,248.2L92.6,248.2z"></path>
	<path class="st2" d="M244.9,173.3c2.7,0,5.3-0.1,7.8-0.1l-1.8-4.4L244.9,173.3z"></path>
	<path class="st2" d="M216.2,168.7l-1.9,4.5c2.7,0,5.3,0.1,7.9,0.1L216.2,168.7L216.2,168.7z"></path>
	<path class="st2" d="M381.3,157.7c17.2-3.9,32.2-7.9,32.2-7.9c-0.2-0.4-0.3-0.9-0.5-1.3l-29.7,7.2L381.3,157.7L381.3,157.7z"></path>
</g>
</svg><style>@media (prefers-color-scheme: light) { :root { filter: none; } }
@media (prefers-color-scheme: dark) { :root { filter: contrast(0.8333333333333334) brightness(1.7); } }
</style></svg>