<?xml version="1.0" encoding="UTF-8"?>
<svg id="Layer_1" data-name="Layer 1" xmlns="http://www.w3.org/2000/svg" viewBox="0 0 640 640">
  <defs>
    <style>
      .cls-1 {
        fill: #fff;
      }
    </style>
  </defs>
  <g>
    <path class="cls-1" d="m354.99,256h248.21c20.3,0,36.8-16.5,36.8-36.8,0-7.3-2.2-14.4-6.2-20.4l-75.6-113.4c-8.9-13.4-23.8-21.4-39.9-21.4H163l192,192Z"/>
    <polygon class="cls-1" points="512 288 512 413.01 576 477.01 576 288 512 288"/>
    <path class="cls-1" d="m320,418.99v29.01h-192v-160h-64v240c0,26.5,21.5,48,48,48h224c26.5,0,48-21.5,48-48v-45.01l-64-64Z"/>
    <path class="cls-1" d="m43.62,142.62L6.2,198.7c-4,6.1-6.2,13.2-6.2,20.4,0,20.4,16.5,36.9,36.8,36.9h120.21l-113.38-113.38Z"/>
  </g>
  <path class="cls-1" d="m590,620c-7.68,0-15.36-2.93-21.21-8.79L28.79,71.21c-11.72-11.72-11.72-30.71,0-42.43s30.71-11.72,42.43,0l540,540c11.72,11.72,11.72,30.71,0,42.43-5.86,5.86-13.54,8.79-21.21,8.79Z"/>
</svg>